<svg xmlns="http://www.w3.org/2000/svg" xmlns:xlink="http://www.w3.org/1999/xlink" viewBox="0 0 200 227.7"><path fill="#F6E5DF" d="M0 .8h199.3v226.9H0z"/><defs><path id="i" d="M0 .8h199.3v226.9H0z"/></defs><clipPath id="j"><use xlink:href="#i" overflow="visible"/></clipPath><g clip-path="url(#j)"><path fill="#FFF6F8" d="M26.3 87c4-.1 8.2-.9 12.2 0 4.7 1 8.6 4.3 13.2 6a33.6 33.6 0 0 0 20.4-.4c5.3-1.4 12.3-2 16.6-5.9 2.5-2.2 3.8-5.5 5.7-8.4 6.3-10 11-21-2.5-27.3-3.6-1.7-7.6-2.7-11-4.8-4.5-3-7.7-8-12.8-9.7-2.1-.6-4.5-.7-6.4-1.7-2.8-1.3-4.5-4.3-7-6-3.1-2.2-7.1-2.4-10.9-2.5-6.1 0-9 2-14.4 4.2-5.2 2.1-10.6 1.3-14.3 6.6-1.4 2-1.8 4.7-2.7 7-1.3 3.2-3.6 5.8-5.7 8.5-3.3 4.6-6 9.9-6.3 15.6C-.4 81.9 13.9 87.3 25.5 87h.8z"/></g><g clip-path="url(#j)" fill="#606060"><path d="M121.1 176.5c-.1-.3-.4-.6-.8-.8 0-.2-.2-.3-.4-.5a8.8 8.8 0 0 0-6-1.6c-1 0-2.4 1-1.5 2a7.6 7.6 0 0 0 7 2.6c.8-.1 2.1-.6 1.7-1.7zM143.6 183.5a6 6 0 0 0-5.2.3c-.4.3-.8.6-.7 1.2 0 .5.6 1 1 1l4 1.4c1 .3 2.4.4 3.2-.4.8-.7.1-1.7-.7-2l-.6-.1c0-.6-.4-1.2-1-1.4zM135.4 197.2c.9-.5 1-1.5.1-2a9.1 9.1 0 0 0-7-1c-1.2.4-1.6 1.4-.6 2.2 1.3 1 2.9 1.7 4.5 2 1 .1 2.4.2 3-.9v-.3zM162 206l-.2-.2c0-.3-.1-.5-.3-.7a4.7 4.7 0 0 0-5.1-.7c-.5.2-.9.6-.8 1.1.1.6.6.9 1.1 1.1l1.7.9c.5.2 1.2.3 1.8.2.4 0 1-.2 1.4-.6.3-.3.5-.6.3-1zm-4.5.5v-.1zM167.4 190c.5-.4 1-.8 1-1.4.1-.4 0-.8-.1-1.1-.6-1.5-2.5-2-4-1.6-1 .2-2.2.9-2.1 2.1 0 1.6 1.6 2.3 3 2.4l1.3-.1.9-.3zm-3.5-2zm1.9-.3zm-1.9.3zM149.5 165c0-.7-.7-1.2-1.4-1.4-.7-.4-1.6-.5-2.3-.4H144c-.7.1-2 .6-1.8 1.5.2 1 1.5 1.3 2.3 1.4l2.4.2c.6 0 1.2 0 1.7-.3.3-.2.8-.6.8-1zM122 157.1l.5-.2c.4-.3.7-.7.5-1.2-.4-1-1.6-1.4-2.5-1.5a4 4 0 0 0-1.7.3c-.6 0-1.2 0-1.7.3-.3.2-.8.5-.7 1 0 .6.5 1 1.1 1.3l.5.4c.4.4 1.1.5 1.7.5.5 0 1.2 0 1.7-.3.2-.1.5-.3.6-.6zM137.6 169.6c0-1.7-1.6-3-3.2-3.2h-1.8c-.4.1-1 .4-1.1.8-.4 1 .5 1.6 1.3 1.8v.1l.1.2c0 1.1 1.4 1.6 2.3 1.6.6 0 1.2 0 1.7-.3.3-.2.7-.5.7-1zm-4.4-.5zm0 0h-.1zm-.4-.1zm0 0zm0 0l-.2-.1h.1zM92.5 150.4c0-.4-.3-.7-.7-1l-1.4-1c-.8-.5-1.7-.7-2.6-.8-.8 0-2.2.2-2.4 1.1-.3 1 .8 1.4 1.5 1.6l.2.1c.4.6 1 1 1.7 1l1.2.3c.6 0 1.3 0 1.7-.3.4-.2.8-.5.8-1zm-5.6 0h0zm.2 0zM97 175l-1-.4c-.7-.5-1.7-.7-2.6-.6-.6 0-2.2.6-1.7 1.6.3.7.9 1 1.5 1.4.2 1.2 2.1 1.6 3.2 1.5.8-.1 1.8-.4 2.2-1.2.5-1-.7-2-1.5-2.4zm-1.4-.4zM115 197.6l-1.2-1.3c-.8-.8-2.2-1-3.2-.7-.5.1-1 .4-1.2.8-.1.4-.1.8.2 1.1l1.3 1.3c.8.8 2.1 1 3.2.7.4-.2 1-.4 1.1-.8.2-.4.2-.8-.1-1.1zM107 162.6c.2-.2.2-.4.1-.6v-.2c0-.3 0-.5-.3-.7 0-.2-.3-.4-.5-.5l-1-.5H103c-.4.2-.9.4-1.2.7-.3.3-.5.6-.5 1 0 .5.2 1 .6 1.2.5.5 1.1.7 1.8.8a4 4 0 0 0 2.4-.4l.5-.3.4-.5zM148 153.2l-1.6-2.5c-1-1.4-5.5-.8-4.2 1.2l1.7 2.5c1 1.4 5.5.8 4.1-1.2zM182.7 216c.2-2.1-2.2-3.5-4-3.4-.9 0-2.4.1-2.5 1.2 0 .9 1 1.4 1.7 1.5v.4c0 .5.4.9.7 1 .4.4 1 .6 1.6.6.9 0 2.3-.2 2.5-1.3zM182.9 201.6c0-1-1.4-1.5-2.3-1.5H179c-.8-.1-2.1 0-2.4 1-.3 1 .9 1.5 1.6 1.7h.3c.5.1 1 .2 1.4 0l.5.1c.6 0 1.2 0 1.7-.3.4-.2.8-.6.8-1zM188.3 183.2L187 182c-.8-.8-2.1-1-3.2-.7-.4.1-1 .3-1.1.7-.2.4-.2.9.1 1.2l1.4 1.2c.7.8 2.1 1 3.2.7.4-.1 1-.3 1-.8.2-.3.2-.8 0-1zM154.2 175.7c1 1.2 3 1.5 4.5.9.5-.2.9-.5 1.1-1 .5 0 1-.2 1.2-.5.7-.8.1-1.7-.7-2l-1.5-.5c-.7-.4-1.7-.5-2.5-.5-.4 0-.9.2-1.2.4-.4 0-.7.2-.9.5-.8.8-.7 1.8 0 2.7zm1.2-1.1v0zM171.6 172.8c.5 1.3 2.4 1.7 3.6 1.6 1-.2 2.4-.7 2.5-1.9 0-.2 0-.4-.2-.5a1 1 0 0 0-.2-.7c-.6-.7-1.5-1-2.4-1-.7 0-1.4 0-2 .4-.9.3-1.6 1.2-1.3 2zM181.8 153.3c-.3-1-1.9-1.2-2.8-1.1l-2.9.2c-.6 0-1.6.4-1.7 1.1-.2.7.4 1.2 1 1.5 1.4.6 2.8.6 4.2.3.3 0 .6-.2.8-.4.8-.2 1.8-.7 1.4-1.6zm-4-.6zM168 160.3c-.2-.4-.7-.7-1-.9l-.9-.2c-.2-.2-.5-.2-.8-.3a3 3 0 0 0-1 0l-.8.2-.6.4c-.3.3-.5.7-.3 1 .2.5.6.8 1 1a235.8 235.8 0 0 1 1.7.4h1l.7-.1.7-.4c.2-.3.4-.7.3-1zM209 194.6a4 4 0 0 0 1.8.2c.3 0 .5 0 .8-.2.2 0 .4-.2.6-.4.3-.3.5-.6.3-1-.2-.5-.6-.8-1-1l-.4-.1a4 4 0 0 0-1.8-.2c-.3 0-.6 0-.8.2-.3 0-.5.2-.7.3-.3.3-.5.7-.3 1.1.2.4.6.8 1 1h.5zM198.7 203c.4-.1 1.1-.3 1.4-.6.3-.3.5-.7.3-1.1-.2-.5-.6-.7-1-1l-1.1-.5c-.6-.2-1.3-.3-1.9-.2-.4 0-1 .2-1.4.5-.3.3-.5.7-.3 1.1.2.5.6.7 1 1l1.2.5c.5.2 1.2.3 1.8.2zM196.7 172.2v.4c0 .3 0 .5.2.7.4.4.9.6 1.4.7l.8.2c.3.1.6.2 1 .1h.8l.7-.4.4-.5.1-.4c0-.2 0-.5-.2-.7-.4-.4-1-.6-1.4-.7l-.8-.2a3 3 0 0 0-1 0c-.3-.1-.6 0-.8 0-.3 0-.5.2-.7.4-.2 0-.4.2-.5.4zM199.8 219.2c-.8-1.7-5.5-1.3-4.6.5.8 1.6 5.5 1.3 4.6-.5z"/></g><path clip-path="url(#j)" fill="#FDD358" d="M184.8 66.5c4.2 1.6 7.5 1.8 11.8 2.4 3 .3 6.3.5 8.3-1.6 1.5-1.6 1.7-4 2.9-5.9.8-1.4 2.1-2.5 2.8-4 1-2.5-.3-4.8-.5-7.3-.2-2 .5-4.2.3-6-.6-3.9-4.3-8.4-8.3-8.8-4.6-.4-7.3 3.1-10.8 5.2-3.4 2-8.3 2.7-10.7 6.2-1.6 2.2-1.5 5.2-2.6 7.7-.5 1-1.2 2-1.4 3.1-.5 2 .4 4.2 1.9 5.6 1.5 1.4 3.4 2.2 5.3 3l1 .4zM88.6 235.5c4.1 1.6 7.5 1.8 11.8 2.4 2.9.3 6.3.5 8.3-1.6 1.5-1.6 1.7-4 2.8-5.9.8-1.4 2.2-2.5 2.8-4 1-2.5-.2-4.8-.5-7.3-.2-2 .6-4.2.3-6-.6-3.9-4.2-8.4-8.3-8.8-4.5-.4-7.3 3.1-10.8 5.2-3.4 2-8.3 2.7-10.7 6.2-1.6 2.2-1.5 5.2-2.6 7.7-.4 1-1.1 2-1.4 3.1-.5 2 .5 4.2 2 5.6a16.4 16.4 0 0 0 6.3 3.4z"/><g><g fill="#606060"><path d="M27 90.9l-4.3 1.5a7 7 0 0 1 .9 0h3.3v.6h-5v-1l4-1.5-4-1.5v-1h5v.7h-2.8a12.4 12.4 0 0 1-1.4 0l4.2 1.5v.7zM24.3 83.8l-2.4-1.2v-.8l3 1.7h2v.7H25L22 86V85l2.3-1.3zM22 75.1c0-.6 0-1.1.3-1.4s.7-.5 1.1-.5l.8.2c.3.1.5.4.6.6.2.3.2.7.2 1.2v.6h2v.7h-5v-1.4zm.6 0v.7h1.8v-.5c0-.4 0-.7-.2-1-.2-.2-.4-.3-.7-.3-.3 0-.6.1-.7.3-.2.2-.2.5-.2.9zM24.4 66.4c.5 0 1 .1 1.4.3.4.2.7.4.9.8.2.3.3.7.3 1.2 0 .6-.1 1-.3 1.4s-.5.6-1 .7c-.3.2-.8.3-1.3.3s-1-.1-1.3-.3c-.4-.1-.7-.4-1-.7s-.2-.8-.2-1.4c0-.5 0-.9.3-1.2s.5-.6.9-.8c.4-.2.8-.3 1.3-.3zm0 3.9c.6 0 1-.1 1.4-.4.4-.2.6-.6.6-1.2 0-.5-.2-.9-.6-1.1-.3-.3-.8-.4-1.4-.4-.6 0-1 .1-1.4.4-.3.2-.5.6-.5 1.1 0 .6.2 1 .5 1.2.4.3.8.4 1.4.4zM22 62.5c0-.6 0-1 .3-1.4.2-.3.6-.4 1-.4l.7.1c.2 0 .3.2.5.4l.2.4 2.2-1.4v1l-2 1.1v.9h2v.7h-5v-1.4zm.6 0v.7h1.7v-.6l-.2-.9c-.2-.2-.4-.3-.7-.3-.3 0-.5.1-.6.3l-.2.9zM27 56.4v.8h-4.4v1.5h-.7v-3.8h.7v1.5h4.3zM27 52v.8h-5V50h.6v2h1.6v-2h.7v2h2zM24.4 43.3c.5 0 1 0 1.4.2.4.2.7.5.9.8s.3.8.3 1.3-.1 1-.3 1.3a2 2 0 0 1-1 .8l-1.3.2c-.5 0-1 0-1.3-.2a2 2 0 0 1-1-.8l-.2-1.3c0-.5 0-1 .3-1.3.2-.4.5-.6.9-.8.4-.2.8-.2 1.3-.2zm0 3.8c.6 0 1-.1 1.4-.4.4-.2.6-.6.6-1.1 0-.5-.2-1-.6-1.2-.3-.2-.8-.3-1.4-.3-.6 0-1 0-1.4.3-.3.3-.5.6-.5 1.2 0 .5.2.9.5 1.1.4.3.8.4 1.4.4zM27 40.8h-5V40h4.3V38h.6v2.9zM27 34v2h-.5l-.2-.6h-3.8l-.1.6h-.5v-2h.5l.1.7h3.8l.2-.6h.4zM24.4 27.3c.5 0 1 .1 1.4.3.4.2.7.4.9.8.2.3.3.7.3 1.3 0 .5-.1 1-.3 1.3a2 2 0 0 1-1 .7c-.3.2-.8.3-1.3.3s-1 0-1.3-.3a2 2 0 0 1-1-.7l-.2-1.3c0-.6 0-1 .3-1.3.2-.4.5-.6.9-.8.4-.2.8-.3 1.3-.3zm0 3.9c.6 0 1-.1 1.4-.4.4-.2.6-.6.6-1.1 0-.6-.2-1-.6-1.2-.3-.2-.8-.4-1.4-.4-.6 0-1 .2-1.4.4-.3.2-.5.6-.5 1.2 0 .5.2.9.5 1.1.4.3.8.4 1.4.4z"/></g><path fill="#FFF" d="M35.4 27.3H180v175.5H35.4z"/></g></svg>