<svg xmlns="http://www.w3.org/2000/svg" xmlns:xlink="http://www.w3.org/1999/xlink" viewBox="0 0 200 227.7"><path fill="#FDE6EC" d="M0 0h200v227.7H0z"/><defs><path id="g" d="M0 0h200v227.7H0z"/></defs><clipPath id="h"><use xlink:href="#g" overflow="visible"/></clipPath><g clip-path="url(#h)"><path fill="#FFF6F8" d="M220 83.6c-.2-4-1-8.2 0-12.2 1-4.7 4.2-8.7 6-13.2a33.7 33.7 0 0 0-.4-20.5c-1.5-5.4-2-12.3-6-16.7-2.2-2.5-5.5-3.8-8.4-5.7-10.1-6.4-21-11-27.4 2.5-1.7 3.6-2.7 7.6-4.8 11-3 4.5-8 7.8-9.7 13-.7 2-.7 4.4-1.7 6.4-1.4 2.8-4.4 4.4-6.1 7-2.2 3-2.4 7-2.4 10.8-.1 6.2 1.9 9.2 4 14.5 2.2 5.2 1.5 10.6 6.7 14.3 2.1 1.5 4.7 1.9 7 2.8 3.2 1.3 5.9 3.6 8.6 5.7 4.6 3.3 10 6 15.6 6.3 13.8.8 19.2-13.6 19-25.2v-.8zM40 252.9c-.3-4-1-8.2-.1-12.2 1-4.7 4.3-8.7 6-13.2a33.7 33.7 0 0 0-.4-20.5c-1.4-5.4-2-12.3-6-16.7-2.2-2.5-5.5-3.9-8.3-5.7-10.2-6.4-21.1-11-27.5 2.5-1.7 3.6-2.6 7.6-4.8 11-3 4.5-8 7.8-9.7 13-.7 2-.7 4.4-1.7 6.4-1.4 2.7-4.3 4.4-6.1 7-2.2 3-2.4 7-2.4 10.8 0 6.2 2 9.2 4.1 14.5 2.2 5.2 1.4 10.6 6.7 14.3 2 1.5 4.7 1.9 7 2.8 3.2 1.3 5.8 3.6 8.6 5.7 4.6 3.3 9.9 6 15.6 6.3 13.7.8 19.2-13.6 19-25.2v-.8z"/><g fill="#606060"><path d="M100 220.4c0-.4-.4-.7-.8-.9 0-.2-.2-.3-.4-.5a8.9 8.9 0 0 0-6-1.6c-1 0-2.4 1-1.5 2a7.6 7.6 0 0 0 7 2.6c.8-.1 2.1-.6 1.7-1.6zM122.5 227.3a6 6 0 0 0-5.1.4c-.5.2-.8.5-.7 1.1 0 .5.5 1 1 1.1l4 1.3c1 .4 2.4.5 3.2-.3.8-.7.1-1.7-.7-2l-.6-.2c0-.6-.4-1.1-1-1.4zM114.4 241c.8-.4 1-1.4.1-2a9.1 9.1 0 0 0-7-.9c-1.2.3-1.6 1.4-.6 2.2 1.2 1 2.8 1.7 4.4 2 1 .1 2.5.1 3-.9l.1-.4zM141 250l-.2-.3c0-.3 0-.5-.3-.7a4.7 4.7 0 0 0-5.1-.7c-.5.2-.8.6-.7 1.1 0 .6.6.9 1 1.1l1.7.9c.5.2 1.3.3 1.8.2.5 0 1.1-.2 1.5-.5.3-.3.5-.7.3-1.1zm-4.4.4h-.1zM146.5 233.8a2 2 0 0 0 1-2.5c-.8-1.4-2.7-1.9-4.1-1.6-1.1.2-2.3 1-2.2 2.2.1 1.6 1.6 2.3 3 2.4.5 0 1 0 1.4-.2.3 0 .6 0 .9-.3zm-3.6-2zm2-.3h-.3.3zm-2 .3zM128.5 208.8c0-.8-.7-1.2-1.4-1.4-.7-.4-1.6-.5-2.3-.5l-1.7.1c-.8 0-2 .6-1.8 1.5.2 1 1.5 1.3 2.3 1.4l2.4.2c.6 0 1.3 0 1.7-.3.4-.2.8-.6.8-1zM101 200.9l.4-.3c.4-.3.7-.7.5-1.2-.4-1-1.5-1.4-2.5-1.4-.6 0-1.2 0-1.7.2-.6 0-1.2 0-1.7.3-.3.2-.8.6-.7 1 0 .6.5 1 1.1 1.3l.5.5c.4.3 1.2.5 1.7.5s1.2 0 1.7-.3l.6-.6zM116.6 213.4c0-1.7-1.6-3-3.2-3.2-.6-.1-1.2-.2-1.9 0-.3.1-1 .4-1 .8-.5.9.5 1.6 1.3 1.8v.3c0 1 1.5 1.6 2.4 1.6.5 0 1.2 0 1.7-.3.3-.2.7-.6.7-1zm-4.5-.5zm0 0zm-.4-.2zm0 0zm0 0h-.1.1zM71.3 194.1c0-.4-.3-.7-.6-1l-1.5-1c-.8-.4-1.7-.7-2.6-.8-.9 0-2.2.2-2.4 1.1-.3 1 .8 1.4 1.5 1.7h.2s0 .1 0 0c.4.6 1 1 1.7 1l1.2.3c.6 0 1.3 0 1.7-.3.4-.2.8-.5.8-1zm-5.6 0h0zm.2 0zM76 218.8l-1.3-.4c-.6-.5-1.6-.7-2.4-.6-.7 0-2.3.6-1.8 1.6.3.7.9 1.1 1.5 1.4.2 1.2 2.2 1.6 3.2 1.5.8 0 1.8-.4 2.2-1.2.5-1-.7-2-1.5-2.3zm-1.5-.4h-.1zM94 241.5l-1.3-1.3c-.8-.8-2.2-1-3.3-.7-.4.1-1 .3-1.1.8-.2.3-.1.8.2 1l1.3 1.4c.8.8 2.1 1 3.2.7.4-.2 1-.4 1.1-.8.2-.4.2-.8-.1-1.1zM86 206.3v-.5-.2c0-.3-.1-.6-.3-.8l-.5-.4c-.3-.3-.7-.4-1.1-.5-.7-.2-1.5-.2-2.2 0a3 3 0 0 0-1.2.7c-.3.2-.5.6-.5 1 0 .5.3.9.6 1.2.5.4 1.2.6 1.9.7a4 4 0 0 0 2.3-.3c.2 0 .4-.2.6-.4.1 0 .3-.3.3-.5zM127 196.9l-1.6-2.5c-1-1.4-5.6-.8-4.2 1.3l1.6 2.4c1 1.5 5.6.8 4.2-1.2zM161.8 260c.2-2.2-2.2-3.5-4-3.5-.8 0-2.4.2-2.5 1.3 0 .8 1 1.3 1.7 1.5v.4c0 .4.4.8.7 1 .4.3 1.1.5 1.6.5 1 0 2.4-.2 2.5-1.2zM162 245.5c0-1-1.4-1.5-2.3-1.5l-1.6-.1c-.8 0-2.1.2-2.4 1.1-.2 1 1 1.5 1.6 1.7h1.7l.6.1c.5 0 1.2 0 1.7-.3.3-.2.7-.6.7-1zM167.5 227l-1.3-1.2c-.8-.8-2.2-1-3.3-.7-.4.1-1 .3-1.1.8-.2.3-.1.8.2 1l1.3 1.4c.8.7 2.1 1 3.2.7.4-.2 1-.4 1.1-.8.2-.4.2-.8-.1-1.1zM133.2 219.5c1 1.2 3 1.5 4.5.9.5-.2 1-.5 1.2-1 .4 0 .9-.2 1.2-.5.7-.8.1-1.7-.8-2l-1.4-.5c-.8-.4-1.8-.5-2.6-.5-.4 0-.9.1-1.2.4-.3 0-.7.2-.9.5-.7.8-.7 1.8 0 2.7zm1.2-1.1v0zM150.7 216.6c.5 1.3 2.4 1.7 3.6 1.6 1-.2 2.4-.7 2.5-1.9 0-.2 0-.4-.2-.6a1 1 0 0 0-.2-.6c-.6-.7-1.5-1-2.4-1-.7 0-1.4 0-2 .3-.9.4-1.6 1.3-1.3 2.2zM161 197c-.4-1-2-1.2-2.9-1.1l-2.9.2c-.6.1-1.6.4-1.7 1.1-.2.8.4 1.2 1 1.5 1.4.6 2.8.7 4.3.4.3 0 .5-.2.8-.5.7-.1 1.7-.7 1.4-1.6zm-4.1-.6zM147 204c-.2-.3-.6-.7-1-.8l-.8-.3-.9-.2h-1c-.2 0-.5 0-.7.2-.3 0-.5.2-.7.3-.2.3-.4.7-.3 1.1.2.4.6.8 1 1l.9.2.8.2h1c.3 0 .5 0 .8-.2l.6-.3c.3-.3.5-.7.3-1.1zM188.2 238.4a4 4 0 0 0 1.8.3l.8-.2c.3-.1.5-.2.6-.4.3-.3.5-.7.4-1-.2-.5-.7-.8-1-1l-.5-.1a4 4 0 0 0-1.8-.3l-.8.2-.7.4c-.2.3-.4.7-.3 1 .2.5.6.8 1 1l.5.1zM177.9 246.8c.4 0 1-.2 1.4-.5.3-.3.5-.7.3-1.1-.2-.5-.6-.7-1-1l-1.2-.5c-.5-.2-1.2-.3-1.8-.2-.4 0-1.1.2-1.4.5-.3.3-.5.7-.3 1.1.2.5.6.7 1 1l1.1.5c.6.2 1.3.3 1.9.2zM175.9 216l-.1.4c0 .3 0 .5.3.7.3.4.8.6 1.4.7l.7.3h1a2.7 2.7 0 0 0 1.6-.4l.4-.5.1-.4c0-.2 0-.5-.3-.7-.3-.4-.8-.6-1.3-.7l-.8-.2-1-.1a2.7 2.7 0 0 0-1.6.4l-.4.5zM179 263.1c-.9-1.6-5.6-1.3-4.6.5.8 1.7 5.5 1.3 4.6-.5z"/></g><g fill="#606060"><path d="M27.5-59.7c.4-.2.6-.5.8-.9l.4-.5c1.1-1.9 1.3-4 1-6.1-.2-1-1.2-2.3-2.2-1.3a7.6 7.6 0 0 0-1.8 7.2c.2.8.8 2.1 1.8 1.6zM23.1-36.5a6 6 0 0 0-.9-5.2c-.3-.4-.6-.7-1.2-.5-.5 0-.9.7-1 1.2l-.8 4c-.2 1-.2 2.5.7 3.2.8.7 1.7 0 1.9-1l.1-.5c.6 0 1-.6 1.2-1.2zM8.6-43.1c.5.8 1.6.9 2-.1 1-2.3 1-4.8.1-7.1-.4-1.2-1.5-1.5-2.2-.4-.9 1.4-1.4 3-1.5 4.7 0 1 .1 2.4 1.2 2.8l.4.1zM2.7-15.7l.3-.2c.2 0 .5-.1.6-.3a4.7 4.7 0 0 0 .2-5.2c-.3-.5-.7-.8-1.2-.6-.6.1-.8.7-1 1.2l-.7 1.7c-.2.5-.1 1.3 0 1.9 0 .4.3 1 .7 1.3.3.3.7.4 1.1.2zM1.8-20v-.1zM19.3-12c.5.5.9.8 1.6.8.3 0 .7 0 1-.2 1.4-.8 1.7-2.8 1.2-4.2-.3-1-1.2-2.1-2.4-1.9-1.6.3-2 1.9-2 3.3 0 .4 0 .9.3 1.3 0 .3.2.6.3.8zm1.6-3.8zm.6 1.9zm-.5-1.9zM42.2-32.7c.8-.1 1.1-.9 1.2-1.6.4-.7.4-1.6.3-2.3l-.3-1.7c-.2-.7-.8-1.9-1.7-1.6-1 .3-1.1 1.6-1.1 2.4v2.5c0 .5.3 1.2.6 1.6.2.3.6.7 1 .7zM47-61c0 .2.2.3.3.5.3.3.8.6 1.3.3 1-.5 1.2-1.7 1.1-2.7 0-.5-.1-1.1-.4-1.6 0-.6-.2-1.2-.5-1.7-.2-.3-.6-.7-1-.6-.7 0-1 .7-1.3 1.3l-.4.6c-.2.4-.3 1.1-.3 1.7 0 .5.2 1.2.5 1.6.2.2.4.5.7.6zM36.3-44c1.7-.2 2.8-2 2.9-3.6 0-.6 0-1.2-.3-1.8-.1-.4-.5-1-.9-1-1-.3-1.5.7-1.6 1.5h-.1l-.2.1c-1.1.2-1.4 1.6-1.3 2.5 0 .6.1 1.2.5 1.6.2.4.6.7 1 .7zm0-4.5zm0 0v-.1zm.1-.4zm0 0zm0 0l.1-.2v.1zM50.4-91.2c.4 0 .7-.4 1-.8l.7-1.5c.4-.8.6-1.8.5-2.7 0-.8-.4-2.1-1.3-2.3-1-.1-1.4 1-1.5 1.7v.2s-.1 0 0 0c-.6.5-.8 1.2-.9 1.9a4 4 0 0 0-.1 1.2c0 .5.2 1.2.5 1.7.3.3.6.7 1 .6zm-.6-5.6v0zm0 .2zM26.4-83.9c.2-.4.2-.8.2-1.2.5-.7.6-1.7.4-2.5-.2-.6-1-2.2-1.9-1.5-.6.4-1 1-1.1 1.6-1.3.3-1.4 2.3-1.2 3.3.2.8.6 1.8 1.5 2 1 .5 1.9-.8 2.1-1.7zm.2-1.4v-.1zM5.9-63.4L7-64.8c.7-.9.8-2.3.3-3.3-.1-.4-.4-.9-.9-1-.4-.1-.8 0-1 .3l-1.2 1.4c-.7.9-.8 2.3-.3 3.3.2.4.4.9.9 1 .4.1.8 0 1-.3zM39.9-75.3h.7c.3 0 .6-.2.8-.4l.4-.5.3-1.2c.1-.7 0-1.5-.3-2.1a3 3 0 0 0-.7-1.2c-.3-.2-.7-.4-1.1-.4-.5 0-.9.4-1.1.8-.4.6-.6 1.2-.6 1.9 0 .8.2 1.6.6 2.3l.4.5.6.3zM53.9-35.5l2.2-2c1.4-1 .2-5.5-1.6-4l-2.3 2c-1.3 1.1-.2 5.6 1.7 4zM-4.9 6.1c2.2 0 3.3-2.5 3-4.4 0-.8-.4-2.3-1.5-2.3-.8 0-1.2 1-1.3 1.9a1.4 1.4 0 0 0-.1 0h-.3c-.5 0-.8.5-1 .8-.3.5-.4 1.2-.3 1.7 0 .9.4 2.3 1.5 2.3zM9.5 4.7c1-.1 1.3-1.6 1.3-2.4L10.7.6c0-.8-.4-2-1.4-2.2-1-.2-1.4 1-1.5 1.8v.3L7.9 2v.5c0 .6.2 1.2.6 1.7.2.3.6.7 1 .6zM28.5 8l1-1.4c.8-.9.9-2.3.4-3.3-.2-.4-.5-.9-1-1-.3-.1-.7 0-1 .3L26.8 4c-.7 1-.8 2.3-.3 3.3.1.4.4 1 .9 1 .4.2.8 0 1-.3zM32.1-26.8c-1.1 1.2-1.1 3.2-.4 4.5.3.5.7.9 1.1 1.1.1.4.4.9.7 1.1.8.6 1.7 0 1.9-1 0-.5.2-1 .3-1.4.3-.8.3-1.8.2-2.7 0-.3-.2-.8-.5-1.1-.1-.3-.3-.6-.6-.8-.9-.7-2-.5-2.7.3zm1.2 1zM37-9.8c-1.3.6-1.5 2.6-1.2 3.8.3 1 1 2.3 2.1 2.2.2 0 .4 0 .6-.2l.6-.3c.6-.6.8-1.6.7-2.5 0-.7-.2-1.4-.6-2-.4-.8-1.3-1.4-2.2-1zM57.5-1.8c1-.5 1-2 .9-3l-.6-2.8c-.1-.6-.6-1.5-1.3-1.6-.7-.1-1.1.6-1.3 1.2-.5 1.4-.4 2.9 0 4.3l.6.7c.3.8 1 1.6 1.7 1.2zm.2-4.1zM49-14.8c.4-.3.7-.7.8-1.2l.2-.8v-.9-1l-.3-.7-.4-.6c-.4-.2-.8-.4-1.2-.2-.3.3-.6.7-.7 1.2l-.2.8-.1.9v1l.4.7c0 .2.2.4.4.6.3.2.7.4 1.1.2zM19.5 30a4 4 0 0 0 0 1.7c0 .3 0 .6.2.8.1.3.3.5.5.6.3.3.7.4 1 .2.5-.2.8-.7.9-1.1v-.4a4 4 0 0 0 .1-1.9c0-.3-.1-.5-.3-.8 0-.2-.2-.4-.4-.6-.3-.2-.8-.4-1.1-.1-.4.2-.7.7-.8 1.1l-.1.4zM10 20.6c0 .5.3 1 .7 1.4.3.2.7.4 1.1.2.4-.3.6-.7.8-1.2l.4-1.2c.2-.5.2-1.3 0-1.8 0-.5-.3-1.1-.7-1.4-.3-.2-.7-.4-1-.2-.5.3-.7.7-.9 1.2l-.4 1.2c-.2.5-.1 1.3 0 1.8zM40.4 15.2H40a1 1 0 0 0-.7.3c-.3.4-.5 1-.6 1.4v.9.9c0 .3 0 .6.2.9 0 .2.2.4.4.6l.5.4h.4c.2 0 .5 0 .7-.3.3-.4.5-1 .5-1.4l.1-.8v-1a2.7 2.7 0 0 0-.6-1.5l-.5-.4zM-6.1 23.5c1.6-1 .7-5.6-1-4.5-1.6 1-.7 5.7 1 4.5z"/></g><path fill="#FDD358" d="M197.1 201.2c4.2 1.6 7.6 1.8 11.9 2.3 2.9.4 6.3.6 8.3-1.5 1.5-1.6 1.7-4 2.9-6 .8-1.4 2.2-2.5 2.8-4 1-2.5-.3-4.8-.5-7.2-.2-2.1.6-4.3.3-6.2-.6-3.8-4.3-8.3-8.3-8.7-4.6-.5-7.4 3.1-10.9 5.2-3.4 2-8.3 2.7-10.7 6.1-1.6 2.3-1.5 5.3-2.6 7.9-.5 1-1.2 2-1.4 3-.5 2 .4 4.2 1.9 5.6 1.5 1.5 3.4 2.3 5.3 3l1 .5zM77.5 21.5c4.2 1.6 7.5 1.8 11.8 2.4 3 .4 6.3.6 8.4-1.6 1.5-1.6 1.7-4 2.8-6 .8-1.3 2.2-2.4 2.8-4 1-2.4-.2-4.7-.5-7.2-.2-2 .6-4.3.3-6.2-.6-3.8-4.3-8.3-8.3-8.7-4.6-.4-7.3 3.1-10.8 5.3-3.5 2-8.4 2.6-10.8 6C71.6 4 71.7 7 70.6 9.5c-.4 1-1.1 2-1.4 3.1-.5 2 .5 4.1 2 5.6 1.4 1.4 3.3 2.3 5.2 3l1 .4zM-8.5 119.5c4.2 1.6 7.5 1.8 11.8 2.4 3 .3 6.4.6 8.4-1.6 1.5-1.6 1.7-4 2.8-6 .9-1.3 2.2-2.4 2.8-4 1-2.5-.2-4.8-.4-7.2-.3-2 .5-4.3.2-6.2-.6-3.8-4.2-8.3-8.3-8.7-4.6-.4-7.3 3.1-10.8 5.2-3.4 2.1-8.4 2.7-10.8 6.2-1.5 2.2-1.4 5.3-2.6 7.8-.4 1-1.1 2-1.4 3.1-.5 2 .5 4.1 2 5.6 1.4 1.4 3.4 2.2 5.3 3l1 .4z"/></g><g><g fill="#606060"><path d="M27 90.9l-4.3 1.5a7 7 0 0 1 .9 0h3.3v.6h-5v-1l4-1.5-4-1.5v-1h5v.7h-2.8a12.4 12.4 0 0 1-1.4 0l4.2 1.5v.7zM24.3 83.8l-2.4-1.2v-.8l3 1.7h2v.7H25L22 86V85l2.3-1.3zM22 75.1c0-.6 0-1.1.3-1.4s.7-.5 1.1-.5l.8.2c.3.1.5.4.6.6.2.3.2.7.2 1.2v.6h2v.7h-5v-1.4zm.6 0v.7h1.8v-.5c0-.4 0-.7-.2-1-.2-.2-.4-.3-.7-.3-.3 0-.6.1-.7.3-.2.2-.2.5-.2.9zM24.4 66.4c.5 0 1 .1 1.4.3.4.2.7.4.9.8.2.3.3.7.3 1.2 0 .6-.1 1-.3 1.4s-.5.6-1 .7c-.3.2-.8.3-1.3.3s-1-.1-1.3-.3c-.4-.1-.7-.4-1-.7s-.2-.8-.2-1.4c0-.5 0-.9.3-1.2s.5-.6.9-.8c.4-.2.8-.3 1.3-.3zm0 3.9c.6 0 1-.1 1.4-.4.4-.2.6-.6.6-1.2 0-.5-.2-.9-.6-1.1-.3-.3-.8-.4-1.4-.4-.6 0-1 .1-1.4.4-.3.2-.5.6-.5 1.1 0 .6.2 1 .5 1.2.4.3.8.4 1.4.4zM22 62.5c0-.6 0-1 .3-1.4.2-.3.6-.4 1-.4l.7.1c.2 0 .3.2.5.4l.2.4 2.2-1.4v1l-2 1.1v.9h2v.7h-5v-1.4zm.6 0v.7h1.7v-.6l-.2-.9c-.2-.2-.4-.3-.7-.3-.3 0-.5.1-.6.3l-.2.9zM27 56.4v.8h-4.4v1.5h-.7v-3.8h.7v1.5h4.3zM27 52v.8h-5V50h.6v2h1.6v-2h.7v2h2zM24.4 43.3c.5 0 1 0 1.4.2.4.2.7.5.9.8s.3.8.3 1.3-.1 1-.3 1.3a2 2 0 0 1-1 .8l-1.3.2c-.5 0-1 0-1.3-.2a2 2 0 0 1-1-.8l-.2-1.3c0-.5 0-1 .3-1.3.2-.4.5-.6.9-.8.4-.2.8-.2 1.3-.2zm0 3.8c.6 0 1-.1 1.4-.4.4-.2.6-.6.6-1.1 0-.5-.2-1-.6-1.2-.3-.2-.8-.3-1.4-.3-.6 0-1 0-1.4.3-.3.3-.5.6-.5 1.2 0 .5.2.9.5 1.1.4.3.8.4 1.4.4zM27 40.8h-5V40h4.3V38h.6v2.9zM27 34v2h-.5l-.2-.6h-3.8l-.1.6h-.5v-2h.5l.1.7h3.8l.2-.6h.4zM24.4 27.3c.5 0 1 .1 1.4.3.4.2.7.4.9.8.2.3.3.7.3 1.3 0 .5-.1 1-.3 1.3a2 2 0 0 1-1 .7c-.3.2-.8.3-1.3.3s-1 0-1.3-.3a2 2 0 0 1-1-.7l-.2-1.3c0-.6 0-1 .3-1.3.2-.4.5-.6.9-.8.4-.2.8-.3 1.3-.3zm0 3.9c.6 0 1-.1 1.4-.4.4-.2.6-.6.6-1.1 0-.6-.2-1-.6-1.2-.3-.2-.8-.4-1.4-.4-.6 0-1 .2-1.4.4-.3.2-.5.6-.5 1.2 0 .5.2.9.5 1.1.4.3.8.4 1.4.4z"/></g><path fill="#FFF" d="M35.4 27.3H180v175.5H35.4z"/></g></svg>