<svg xmlns="http://www.w3.org/2000/svg" xmlns:xlink="http://www.w3.org/1999/xlink" viewBox="0 0 200 227.7"><path fill="#B1B5AD" d="M0 0h200v227.7H0z"/><defs><path id="c" d="M0 0h200v227.7H0z"/></defs><clipPath id="d"><use xlink:href="#c" overflow="visible"/></clipPath><g clip-path="url(#d)"><path fill="#FAE6E7" d="M-24 192c4.1-.4 8.2-1.4 12.2-.7 4.8.8 8.9 3.9 13.5 5.4 6.8 2.1 13.9.7 20.4-1.4 5.4-1.7 12.3-2.6 16.4-6.7 2.4-2.4 3.6-5.7 5.3-8.7 6-10.4 10-21.5-3.8-27.3-3.7-1.5-7.7-2.2-11.2-4.3-4.7-2.7-8.1-7.6-13.4-9-2.1-.6-4.4-.5-6.5-1.4-2.8-1.2-4.6-4.1-7.3-5.8-3.2-2-7.2-2-11-1.8-6.1.2-9 2.3-14.2 4.8-5.1 2.4-10.6 1.9-14 7.3-1.3 2.2-1.6 4.8-2.4 7.2-1.2 3.2-3.4 6-5.3 8.8a29.8 29.8 0 0 0-5.6 15.9c0 13.7 14.5 18.5 26.1 17.7h.8z"/><g fill="#606060"><path d="M195 47.3c-.3-.3-.6-.5-1-.6l-.6-.4c-2-.8-4.2-.7-6.2-.1-1 .3-2 1.5-1 2.3a7.6 7.6 0 0 0 7.5.8c.7-.3 1.9-1 1.3-2zM218.5 48.7a6 6 0 0 0-5 1.5c-.3.4-.6.8-.4 1.3.2.5.8.8 1.3.9 1.4 0 2.8.2 4.1.3 1.1 0 2.5-.1 3.2-1.1.5-1-.4-1.7-1.2-1.8h-.6c-.1-.6-.8-1-1.4-1.1zM213.9 64c.7-.7.6-1.7-.4-2a9.1 9.1 0 0 0-7 .8c-1.2.6-1.3 1.7-.1 2.3 1.5.6 3.2 1 4.8.8 1-.1 2.4-.4 2.7-1.5V64zM241.8 66.2l-.2-.2c0-.2-.2-.5-.5-.6-1.6-1-3.7-.6-5.1.5-.4.3-.7.8-.5 1.3.3.6.8.7 1.3.8l1.9.5c.5.1 1.3 0 1.8-.2.4-.2 1-.5 1.3-1 .2-.3.3-.7 0-1zm-4.2 1.5zM243.2 49.3c.5-.5.8-1 .8-1.7a2 2 0 0 0-.5-1c-1-1.2-2.9-1.2-4.2-.6-1 .5-2 1.4-1.6 2.6.5 1.5 2.1 1.9 3.5 1.6.4 0 .9-.2 1.2-.4l.8-.5zm-3.9-1.1zm1.8-.8zm-1.7.7zM219.8 29.3c-.2-.8-1-1-1.7-1-.7-.3-1.7-.2-2.3 0l-1.7.6c-.7.2-1.7 1-1.3 1.8.4 1 1.7 1 2.5.8l2.4-.4c.6 0 1.2-.3 1.6-.7.3-.3.6-.7.5-1.1zM191.1 28.2l.5-.4c.3-.4.5-.8.2-1.3-.7-.8-1.9-1-2.8-.8-.6.1-1.2.3-1.7.7-.5.1-1 .3-1.5.7-.3.2-.6.7-.5 1.1.2.6.8 1 1.5 1 .1.1.3.3.5.3.5.3 1.3.2 1.8.1.5 0 1.2-.3 1.6-.7.1-.2.4-.4.4-.7zM209.4 36.6c-.5-1.7-2.3-2.5-4-2.4-.6 0-1.2.2-1.7.5-.4.2-.9.6-1 1 0 1 1 1.5 1.8 1.5l.2.2c.3 1 1.7 1.2 2.6 1 .6-.1 1.2-.3 1.6-.7.3-.3.6-.7.5-1.1zm-4.5.6zm0 0zm-.4 0V37zm0 0zm0-.1h-.2.1zM160.8 28.8c-.2-.5-.5-.7-.9-.9-.5-.3-1-.4-1.7-.6-.8-.3-1.8-.3-2.7-.1-.8.1-2 .6-2 1.6s1 1.2 1.8 1.2h.2s0 .1 0 0c.5.5 1.3.7 2 .6h1.2c.5-.1 1.2-.3 1.6-.7.3-.3.6-.7.5-1.1zm-5.5 1.2h0zm.2 0zM171.1 51.5H170c-.7-.4-1.8-.3-2.5 0-.6.2-2 1.2-1.3 2a3 3 0 0 0 1.8 1c.4 1.1 2.4 1 3.4.7.8-.3 1.7-.9 1.8-1.8.3-1.1-1-1.7-2-1.9zm-1.5 0zM194.1 69.3l-1.6-1c-1-.5-2.3-.5-3.3.1-.3.3-.8.6-.9 1 0 .5.1.9.5 1.1l1.5 1c1 .5 2.4.4 3.3-.2.4-.2.9-.5 1-1 0-.4-.1-.8-.5-1zM177.9 37v-.5l-.2-.2a1 1 0 0 0-.4-.6l-.6-.3c-.4-.2-.8-.2-1.2-.2-.7 0-1.5.2-2 .5a3 3 0 0 0-1 1c-.3.2-.4.6-.3 1 0 .5.4.8.9 1 .6.4 1.2.4 2 .3a4 4 0 0 0 2.1-.8l.5-.5.2-.6zM215.5 18l-2.2-2c-1.3-1.1-5.5.6-3.7 2.3l2.2 2c1.3 1.1 5.6-.6 3.7-2.2zM264.4 71c-.3-2.2-3-3-4.7-2.4-.8.2-2.3.7-2.1 1.8.1.8 1.2 1 2 1v.1l.1.3c0 .4.6.8 1 .9.4.2 1.1.2 1.6 0 .9-.1 2.2-.7 2.1-1.8zM261.2 56.9c-.3-1-1.8-1.2-2.6-1l-1.6.3c-.8.2-2 .7-2 1.7-.1 1 1.1 1.2 1.9 1.2h.3c.4 0 1-.1 1.3-.3h.6c.5-.2 1.1-.4 1.6-.8.2-.3.6-.7.5-1.1zM262 37.7l-1.6-1c-1-.5-2.3-.5-3.3.1-.3.3-.8.6-.9 1 0 .5.1.9.5 1.1l1.5 1c1 .5 2.4.4 3.3-.2.4-.2.9-.5 1-1 0-.4-.1-.8-.5-1zM227 38.5c1.3 1 3.3.7 4.5-.2.5-.3.8-.7 1-1.2.3-.2.8-.4 1-.8.5-.9-.3-1.7-1.2-1.7l-1.5-.2c-.9-.2-1.9 0-2.7.1-.4.1-.8.4-1 .7-.4.2-.6.4-.8.7-.5 1-.3 2 .7 2.6zm.9-1.3zM243.2 31.5c.8 1.2 2.7 1.1 3.9.7 1-.4 2.2-1.2 2-2.4 0-.2-.2-.4-.3-.5a1 1 0 0 0-.4-.6c-.7-.5-1.7-.6-2.5-.4-.8.1-1.4.4-2 .8-.7.6-1.2 1.6-.7 2.4zM248.5 10c-.6-.8-2.2-.7-3-.4l-2.8 1c-.6.2-1.4.7-1.4 1.5 0 .7.7 1 1.3 1.1 1.5.3 3 0 4.2-.6l.7-.6c.7-.4 1.5-1.2 1-2zm-4.1.5l-.4.1.4-.1zM236.7 20.2c-.3-.3-.8-.6-1.3-.6H233.7a3 3 0 0 0-.9.1l-.8.4-.5.6c-.2.3-.3.7 0 1 .3.4.8.7 1.2.7h1.8l.9-.1.7-.4.5-.5c.2-.4.3-.8 0-1.2zM284.8 43.7a4 4 0 0 0 1.9-.2l.7-.4.5-.5c.2-.3.4-.7 0-1.1-.2-.4-.7-.6-1.2-.6h-.4a4 4 0 0 0-1.8.1l-.7.4c-.3.1-.4.3-.6.5-.2.4-.3.8 0 1.2.3.3.8.5 1.2.6h.4zM276.9 54.4c.4-.2 1-.5 1.2-1 .2-.3.3-.7 0-1-.3-.5-.7-.6-1.2-.7l-1.2-.3c-.6-.1-1.3 0-1.8.2s-1 .5-1.3 1c-.2.3-.3.7 0 1 .3.4.7.6 1.2.7l1.2.3c.6 0 1.3 0 1.9-.2zM267.6 24.9v.4c0 .3.2.5.4.6.4.3 1 .4 1.5.4h.8l1-.1c.3 0 .5-.2.8-.4.2 0 .4-.2.6-.4l.3-.6v-.4a1 1 0 0 0-.4-.6c-.5-.3-1-.4-1.5-.4h-.9a3 3 0 0 0-.9.1c-.3 0-.6.2-.8.4-.3 0-.5.2-.6.4l-.3.6zM281.8 70c-1.2-1.5-5.6 0-4.3 1.5 1.2 1.4 5.7 0 4.3-1.6z"/></g><path fill="#FDD358" d="M162.5 78.6c4.2 1.6 7.5 1.9 11.8 2.4 3 .4 6.4.6 8.4-1.5 1.5-1.7 1.7-4 2.8-6 .9-1.4 2.2-2.5 2.8-4 1-2.5-.2-4.8-.4-7.3-.3-2 .5-4.2.2-6.1-.6-3.8-4.2-8.3-8.3-8.7-4.6-.5-7.3 3-10.8 5.2-3.4 2-8.3 2.7-10.8 6.1-1.5 2.3-1.4 5.3-2.6 7.8-.4 1-1.1 2-1.4 3.1-.5 2 .5 4.2 2 5.6 1.4 1.4 3.4 2.3 5.3 3l1 .4zM138.7 240.6c4.2 1.6 7.5 1.9 11.8 2.4 3 .4 6.3.6 8.3-1.5 1.6-1.6 1.8-4 2.9-6 .8-1.4 2.2-2.5 2.8-4 1-2.5-.2-4.8-.5-7.3-.2-2 .6-4.2.3-6.1-.6-3.8-4.3-8.3-8.3-8.7-4.6-.5-7.3 3-10.9 5.2-3.4 2-8.3 2.7-10.7 6.1-1.6 2.3-1.5 5.3-2.6 7.8-.5 1-1.1 2-1.4 3.2-.5 2 .4 4 2 5.5 1.4 1.4 3.3 2.3 5.2 3l1 .4zM29.5 16c4.2 1.6 7.5 1.8 11.8 2.4 3 .3 6.4.5 8.4-1.6 1.5-1.6 1.7-4 2.8-6 .9-1.4 2.2-2.5 2.8-4 1-2.5-.2-4.8-.4-7.2-.2-2 .5-4.3.2-6.2-.5-3.8-4.2-8.3-8.3-8.7-4.5-.4-7.3 3.1-10.8 5.2-3.4 2-8.3 2.7-10.8 6.2-1.5 2.2-1.4 5.3-2.6 7.8-.4 1-1.1 2-1.4 3-.5 2 .5 4.2 2 5.6 1.4 1.5 3.4 2.3 5.3 3l1 .5z"/></g><g><g fill="#606060"><path d="M27 90.9l-4.3 1.5a7 7 0 0 1 .9 0h3.3v.6h-5v-1l4-1.5-4-1.5v-1h5v.7h-2.8a12.4 12.4 0 0 1-1.4 0l4.2 1.5v.7zM24.3 83.8l-2.4-1.2v-.8l3 1.7h2v.7H25L22 86V85l2.3-1.3zM22 75.1c0-.6 0-1.1.3-1.4s.7-.5 1.1-.5l.8.2c.3.1.5.4.6.6.2.3.2.7.2 1.2v.6h2v.7h-5v-1.4zm.6 0v.7h1.8v-.5c0-.4 0-.7-.2-1-.2-.2-.4-.3-.7-.3-.3 0-.6.1-.7.3-.2.2-.2.5-.2.9zM24.4 66.4c.5 0 1 .1 1.4.3.4.2.7.4.9.8.2.3.3.7.3 1.2 0 .6-.1 1-.3 1.4s-.5.6-1 .7c-.3.2-.8.3-1.3.3s-1-.1-1.3-.3c-.4-.1-.7-.4-1-.7s-.2-.8-.2-1.4c0-.5 0-.9.3-1.2s.5-.6.9-.8c.4-.2.8-.3 1.3-.3zm0 3.9c.6 0 1-.1 1.4-.4.4-.2.6-.6.6-1.2 0-.5-.2-.9-.6-1.1-.3-.3-.8-.4-1.4-.4-.6 0-1 .1-1.4.4-.3.2-.5.6-.5 1.1 0 .6.2 1 .5 1.2.4.3.8.4 1.4.4zM22 62.5c0-.6 0-1 .3-1.4.2-.3.6-.4 1-.4l.7.1c.2 0 .3.2.5.4l.2.4 2.2-1.4v1l-2 1.1v.9h2v.7h-5v-1.4zm.6 0v.7h1.7v-.6l-.2-.9c-.2-.2-.4-.3-.7-.3-.3 0-.5.1-.6.3l-.2.9zM27 56.4v.8h-4.4v1.5h-.7v-3.8h.7v1.5h4.3zM27 52v.8h-5V50h.6v2h1.6v-2h.7v2h2zM24.4 43.3c.5 0 1 0 1.4.2.4.2.7.5.9.8s.3.8.3 1.3-.1 1-.3 1.3a2 2 0 0 1-1 .8l-1.3.2c-.5 0-1 0-1.3-.2a2 2 0 0 1-1-.8l-.2-1.3c0-.5 0-1 .3-1.3.2-.4.5-.6.9-.8.4-.2.8-.2 1.3-.2zm0 3.8c.6 0 1-.1 1.4-.4.4-.2.6-.6.6-1.1 0-.5-.2-1-.6-1.2-.3-.2-.8-.3-1.4-.3-.6 0-1 0-1.4.3-.3.3-.5.6-.5 1.2 0 .5.2.9.5 1.1.4.3.8.4 1.4.4zM27 40.8h-5V40h4.3V38h.6v2.9zM27 34v2h-.5l-.2-.6h-3.8l-.1.6h-.5v-2h.5l.1.7h3.8l.2-.6h.4zM24.4 27.3c.5 0 1 .1 1.4.3.4.2.7.4.9.8.2.3.3.7.3 1.3 0 .5-.1 1-.3 1.3a2 2 0 0 1-1 .7c-.3.2-.8.3-1.3.3s-1 0-1.3-.3a2 2 0 0 1-1-.7l-.2-1.3c0-.6 0-1 .3-1.3.2-.4.5-.6.9-.8.4-.2.8-.3 1.3-.3zm0 3.9c.6 0 1-.1 1.4-.4.4-.2.6-.6.6-1.1 0-.6-.2-1-.6-1.2-.3-.2-.8-.4-1.4-.4-.6 0-1 .2-1.4.4-.3.2-.5.6-.5 1.2 0 .5.2.9.5 1.1.4.3.8.4 1.4.4z"/></g><path fill="#FFF" d="M35.4 27.3H180v175.5H35.4z"/></g></svg>