<svg xmlns="http://www.w3.org/2000/svg" xmlns:xlink="http://www.w3.org/1999/xlink" viewBox="0 0 200 227.7"><path fill="#FDC2BB" d="M0 .4h199.9V228H0z"/><defs><path id="e" d="M0 .4h199.9V228H0z"/></defs><clipPath id="f"><use xlink:href="#e" overflow="visible"/></clipPath><g clip-path="url(#f)" fill="#606060"><path d="M163.1 74.3c.4-.2.6-.5.7-1 .2 0 .4-.2.5-.5 1-1.9 1.1-4 .6-6-.2-1-1.2-2.3-2.2-1.3a7.6 7.6 0 0 0-1.5 7.3c.3.8 1 2 2 1.5zM159.6 97.6a6 6 0 0 0-1-5.1c-.4-.4-.8-.7-1.3-.5-.5.1-.9.7-1 1.2l-.7 4c-.1 1.1 0 2.5.9 3.3.8.6 1.7-.2 1.8-1l.1-.7c.6 0 1-.6 1.2-1.2zM144.8 91.6c.6.7 1.7.8 2-.2 1-2.3 1-4.8 0-7-.6-1.3-1.7-1.5-2.4-.4-.8 1.4-1.2 3.1-1.2 4.7 0 1 .2 2.5 1.2 2.8.2 0 .3.1.4 0zM140 119.2l.3-.2c.2 0 .5-.2.6-.4 1-1.6 1-3.6 0-5.2-.3-.4-.8-.7-1.3-.5-.5.1-.7.7-1 1.2l-.5 1.8c-.2.5-.1 1.3 0 1.8.1.4.4 1 .8 1.4.3.2.8.3 1.1 0zm-1-4.3v-.1zM156.8 122.2c.4.5.9.8 1.5.8a2 2 0 0 0 1-.3c1.4-.9 1.6-2.8 1.1-4.2-.4-1-1.3-2-2.5-1.8-1.5.4-2 2-1.9 3.4l.3 1.2.5.9zm1.4-3.8zm.6 1.8v-.2.2zm-.5-1.8zM178.8 100.6c.8 0 1-.8 1.2-1.6.3-.7.3-1.6.1-2.3l-.3-1.6c-.2-.8-.9-1.9-1.8-1.6-.9.3-1 1.7-1 2.5l.2 2.4c0 .6.2 1.2.6 1.6.2.3.6.7 1 .6zM182.5 72.2l.4.5c.3.3.8.6 1.2.3 1-.5 1.2-1.8 1-2.7 0-.6-.1-1.2-.4-1.7-.1-.5-.2-1.1-.6-1.6-.2-.3-.6-.7-1-.6-.7.1-1 .7-1.2 1.4l-.4.5c-.3.5-.3 1.2-.2 1.7 0 .6.2 1.2.5 1.7l.7.5zM172.5 89.6c1.7-.3 2.7-2 2.7-3.7 0-.6 0-1.2-.3-1.8-.2-.3-.5-.9-1-1-.9-.2-1.5.8-1.5 1.6h-.1l-.2.2c-1.1.2-1.3 1.6-1.2 2.5 0 .5.2 1.2.5 1.6.3.3.7.7 1.1.6zm-.2-4.5zm0 0zm.1-.4zm0 0zm0 0l.1-.2v.2zM184.7 42c.5-.1.7-.5 1-.8l.7-1.6c.3-.9.5-1.8.4-2.8 0-.8-.5-2-1.5-2.2-.9 0-1.2 1-1.3 1.8v.2c-.1 0-.2 0 0 0-.6.5-.8 1.2-.9 1.9v1.2c0 .5.2 1.2.5 1.6.3.4.7.7 1.1.6zm-.7-5.6a2.7 2.7 0 0 1 0 .2v-.2zm0 .2zM161 50.2c.2-.4.2-.8.2-1.2.5-.7.5-1.8.3-2.5s-1-2.2-1.9-1.5c-.6.4-1 1-1 1.7-1.3.3-1.4 2.3-1.1 3.3.2.8.7 1.8 1.5 2 1.1.3 1.9-1 2-1.8zm.2-1.5v-.1.1zM141.4 71.4l1-1.4c.7-1 .7-2.3.2-3.3-.2-.4-.5-1-1-1-.3-.1-.7 0-1 .3l-1 1.5c-.7.9-.8 2.3-.3 3.3.2.4.5.9 1 1 .4 0 .8 0 1-.4zM174.9 58.2h.7c.3 0 .6-.2.7-.4l.4-.6.3-1.2c0-.7 0-1.5-.4-2-.1-.5-.4-1-.8-1.2-.3-.2-.6-.4-1-.3-.5 0-.9.4-1.1.8-.4.5-.5 1.2-.5 1.9 0 .8.2 1.6.7 2.3l.4.4.6.3zM190.4 97.4l2.1-2c1.4-1.2 0-5.6-1.8-4l-2.1 2c-1.4 1.3 0 5.7 1.8 4zM133.3 141.3c2.1-.1 3.1-2.7 2.8-4.5-.1-.9-.5-2.4-1.7-2.3-.8.1-1.1 1.1-1.2 2h-.4c-.4 0-.7.5-1 .8-.2.5-.2 1.2-.2 1.7.1.9.6 2.3 1.7 2.3zM147.6 139.3c1-.2 1.3-1.6 1.2-2.5l-.2-1.6c-.1-.8-.5-2-1.5-2.2-1-.1-1.3 1.1-1.4 1.8v.4c0 .4 0 .9.2 1.3v.6c0 .5.3 1.2.6 1.6.2.3.7.7 1 .6zM166.6 142l1.1-1.6c.7-.9.7-2.3.2-3.3-.2-.3-.5-.8-1-1-.3 0-.8 0-1 .4l-1 1.5c-.7.9-.8 2.3-.3 3.2.2.4.5 1 1 1 .4.2.8 0 1-.3zM169 107c-1.1 1.2-1 3.2-.3 4.5.3.5.7.9 1.2 1 .1.4.3.9.7 1.1.8.6 1.7-.1 1.8-1l.3-1.5c.3-.8.3-1.8.1-2.7 0-.3-.2-.8-.5-1l-.6-.9c-1-.6-2-.4-2.7.4zm1.2 1zM174.5 123.8c-1.3.6-1.4 2.6-1 3.8.2 1 1 2.2 2.2 2.2.2 0 .3-.1.5-.3l.6-.3c.6-.7.7-1.7.6-2.5 0-.8-.2-1.4-.6-2-.5-.8-1.5-1.4-2.3-1zM195.3 131c1-.5 1-2.1.7-3l-.7-2.8c-.1-.7-.6-1.6-1.3-1.6-.7 0-1.1.6-1.3 1.2-.4 1.5-.2 3 .3 4.3 0 .3.3.6.5.7.3.8 1 1.6 1.8 1.2zm0-4.2zM186.3 118.3c.4-.3.6-.7.7-1.2l.2-.8v-.9-1l-.4-.7-.5-.6c-.3-.2-.7-.4-1-.1-.5.2-.7.7-.8 1.1l-.2.9v1.8l.4.8.5.5c.3.3.7.4 1 .2zM158.5 164a4 4 0 0 0 0 2l.4.7c0 .2.2.4.4.6.4.2.8.3 1.1.1.4-.2.7-.7.8-1.2v-.4a4 4 0 0 0 0-1.8c0-.3-.1-.6-.3-.8l-.5-.6c-.3-.2-.7-.3-1 0-.5.2-.7.6-.8 1v.5zM148.7 155.2c0 .4.3 1 .7 1.3.4.2.8.4 1.2.1.4-.2.6-.7.7-1.1l.4-1.2c.2-.6.1-1.3 0-1.9-.2-.4-.4-1-.8-1.3-.4-.3-.8-.4-1.1-.2-.5.3-.6.8-.8 1.2l-.4 1.2v1.9zM178.8 148.6h-.4a1 1 0 0 0-.6.3c-.4.5-.5 1-.6 1.5v1.8a2.7 2.7 0 0 0 .7 1.5c.1.1.3.3.5.3h.4c.3 0 .5 0 .7-.3.3-.4.5-1 .5-1.5v-.8-1c0-.2 0-.5-.2-.8-.1-.3-.3-.5-.5-.6a1 1 0 0 0-.5-.4zM132.7 158.7c1.5-1 .5-5.7-1.2-4.5-1.5 1-.4 5.7 1.2 4.5z"/></g><g clip-path="url(#f)" fill="#606060"><path d="M114.5-69.5c.4-.2.6-.5.7-.9.2 0 .4-.3.5-.5 1-1.8 1.3-4 1-6-.3-1-1.3-2.4-2.3-1.4a7.6 7.6 0 0 0-1.7 7.3c.2.7.8 2 1.8 1.5zM110.1-46.3a6 6 0 0 0-.9-5.1c-.3-.5-.7-.8-1.2-.6-.5.1-.9.7-1 1.2l-.8 4c-.3 1-.3 2.5.6 3.2.9.7 1.8 0 2-1v-.5c.7 0 1.2-.6 1.3-1.2zM95.6-52.9c.5.8 1.6.9 2-.1 1-2.3 1-4.8.1-7-.5-1.3-1.5-1.5-2.2-.4-1 1.3-1.4 3-1.5 4.6 0 1 .1 2.5 1.2 2.8l.4.1zM89.7-25.5l.3-.2c.2 0 .5-.1.6-.3a4.7 4.7 0 0 0 .2-5.2c-.3-.5-.8-.8-1.3-.6-.5.1-.7.7-1 1.2L88-29c-.2.5-.2 1.3 0 1.8 0 .5.3 1.1.7 1.4.3.3.7.4 1.1.2zm-1-4.3h.1v-.1zM106.3-21.9c.4.5.9.9 1.5 1 .4 0 .8-.2 1.1-.3 1.4-.8 1.6-2.8 1.2-4.2-.3-1-1.2-2.1-2.4-1.9-1.6.3-2.1 1.9-2 3.3 0 .4 0 .9.2 1.3l.4.8zm1.6-3.7zm.6 1.9zm-.6-1.9zM129.2-42.5c.7-.1 1-.9 1.2-1.6.4-.7.3-1.6.2-2.3 0-.6-.2-1.1-.3-1.7-.1-.7-.7-1.8-1.6-1.6-1 .3-1.2 1.6-1.1 2.4v2.5c0 .5.2 1.2.5 1.6.3.3.7.7 1 .7zM134-70.8c0 .2.1.3.3.5.3.3.8.6 1.2.3 1-.5 1.2-1.7 1.2-2.6a4 4 0 0 0-.4-1.7c-.1-.6-.2-1.2-.6-1.6-.2-.3-.6-.7-1-.7-.7.1-1 .7-1.2 1.4l-.4.5c-.3.4-.3 1.2-.3 1.7s.2 1.2.5 1.6c.2.2.4.5.7.6zM123.3-53.8c1.7-.2 2.8-2 2.8-3.6 0-.6 0-1.2-.2-1.8-.2-.4-.5-1-1-1-.9-.3-1.5.7-1.6 1.5l-.2.1c-1.1.2-1.4 1.6-1.4 2.5 0 .6.2 1.2.5 1.6.3.4.6.7 1 .7zm0-4.5zm0 0zm0-.4h.1zm0 0zm.1 0v-.2.1zM137.3-101c.5 0 .7-.3 1-.7.3-.5.6-1 .7-1.6.5-.8.6-1.7.6-2.7 0-.8-.4-2-1.4-2.2-1-.2-1.3.9-1.4 1.6v.2c-.1 0-.2.1 0 0-.6.5-.9 1.2-1 2a4 4 0 0 0 0 1.1c0 .6.1 1.3.5 1.7.2.3.6.7 1 .6zm-.5-5.6v0zm0 .2zM113.4-93.6l.2-1.2c.5-.7.6-1.8.4-2.6-.2-.6-1-2.1-1.9-1.5-.6.4-1 1-1.1 1.6-1.3.3-1.4 2.3-1.2 3.3.2.9.6 1.8 1.5 2.1 1 .4 1.8-.9 2.1-1.7zm.2-1.5v-.1zM92.9-73.2l1.1-1.4c.7-.9.8-2.3.3-3.3-.2-.4-.4-.9-.9-1-.4-.1-.8 0-1 .3l-1.2 1.4c-.7.9-.8 2.3-.3 3.3.2.4.4 1 .9 1 .4.2.8 0 1-.3zM126.9-85h.5l.2-.1c.3 0 .5-.2.7-.4l.4-.5.4-1.2c0-.7 0-1.5-.3-2.1a3 3 0 0 0-.8-1.1c-.3-.3-.6-.5-1-.4-.5 0-.9.3-1.2.7-.4.6-.5 1.2-.5 2 0 .7.1 1.5.6 2.2l.4.5.6.3zM140.9-45.3l2.2-2c1.3-1 .2-5.5-1.7-4l-2.2 2c-1.4 1.1-.2 5.6 1.7 4zM82.1-3.7c2.2 0 3.2-2.6 3-4.4-.1-.8-.4-2.3-1.6-2.3-.8 0-1.2 1-1.2 1.9h-.5c-.4 0-.7.5-1 .8-.2.5-.3 1.2-.2 1.7 0 .9.4 2.3 1.5 2.3zM96.5-5.1c1-.1 1.3-1.6 1.3-2.5l-.1-1.6c-.1-.8-.5-2-1.4-2.2-1-.2-1.4 1-1.5 1.8V-8l.1.5c0 .6.2 1.2.5 1.7.2.3.7.7 1 .6zM115.4-1.8l1.2-1.4c.6-.9.7-2.3.3-3.3-.2-.4-.5-.9-1-1-.3-.1-.8 0-1 .3l-1.1 1.4c-.7.9-.8 2.3-.4 3.3.2.4.5.9 1 1 .3.1.8 0 1-.3zM119-36.6c-1 1.2-1 3.2-.3 4.5.3.5.6.9 1 1.1.2.4.4.9.7 1.1.9.6 1.7 0 2-1 0-.5.2-1 .3-1.4.3-.8.3-1.8.2-2.7 0-.3-.2-.8-.5-1.1-.2-.3-.3-.6-.6-.8-.9-.7-2-.5-2.7.3zm1.3 1c-.1 0 0 0 0 0zM124-19.6c-1.3.6-1.5 2.6-1.2 3.8.2 1 .9 2.3 2.1 2.2.2 0 .4 0 .5-.2.3 0 .5-.1.7-.3.6-.7.8-1.6.7-2.5 0-.7-.2-1.4-.6-2-.4-.8-1.4-1.4-2.2-1zM144.5-11.6c1-.5 1-2 .8-3l-.5-2.8c-.2-.6-.6-1.5-1.3-1.6-.8-.1-1.2.6-1.4 1.2-.5 1.4-.3 2.8.1 4.2.1.3.3.6.6.8.2.8.9 1.6 1.7 1.2zm.2-4.1zM136-24.6c.4-.3.7-.7.7-1.2l.2-.8.1-.9v-1l-.3-.7-.5-.6c-.3-.2-.7-.4-1-.2-.5.3-.8.7-.9 1.2l-.1.8-.2.9.1.9c0 .3.2.5.3.8l.4.6c.4.2.8.4 1.2.2zM106.5 20a4 4 0 0 0 0 2c0 .2 0 .5.2.7l.4.6c.4.2.8.4 1.2.2.4-.3.6-.7.7-1.2l.1-.4a4 4 0 0 0 0-1.8c0-.3 0-.6-.2-.8l-.5-.6c-.3-.2-.7-.4-1-.2-.5.3-.7.7-.9 1.2v.4zM97 10.8c0 .4.3 1 .7 1.4.3.2.7.4 1.1.1.4-.2.6-.6.8-1.1l.4-1.2c.2-.5.2-1.3 0-1.8 0-.5-.3-1.1-.7-1.4-.3-.3-.7-.4-1-.2-.5.3-.7.7-.9 1.1L97 9c-.2.6-.2 1.3 0 1.9zM127.3 5.4l-.3-.1a1 1 0 0 0-.7.4c-.4.4-.5.9-.6 1.4l-.1.8v1l.2.9.4.6.5.4h.4c.3 0 .5 0 .7-.3.4-.4.5-1 .6-1.5l.1-.8v-1l-.2-.8-.4-.6-.6-.4zM80.9 13.7c1.5-1 .7-5.6-1-4.5-1.6 1-.7 5.6 1 4.5z"/></g><g clip-path="url(#f)" fill="#606060"><path d="M48.7 213.7c.4-.2.6-.5.7-.9l.5-.5c1-1.9 1.3-4 1-6.1-.3-1-1.3-2.3-2.3-1.3a7.6 7.6 0 0 0-1.7 7.3c.2.7.8 2 1.8 1.5zM44.3 236.8a6 6 0 0 0-.9-5c-.3-.5-.7-.8-1.2-.6-.5 0-.9.6-1 1.1l-.9 4.1c-.2 1-.2 2.5.7 3.2.9.7 1.8 0 2-1v-.5c.6 0 1.2-.6 1.3-1.3zM29.8 230.3c.5.8 1.6.8 2-.1 1-2.3 1-4.8.1-7.1-.5-1.2-1.5-1.5-2.2-.4-1 1.4-1.4 3-1.5 4.7 0 1 .1 2.4 1.2 2.8.1 0 .3.1.4 0zM23.9 257.7l.3-.2c.2 0 .4-.1.6-.4a4.7 4.7 0 0 0 .2-5.2c-.3-.4-.8-.7-1.3-.5-.5.1-.7.6-1 1.1l-.6 1.8c-.2.5-.2 1.3 0 1.8 0 .5.3 1.1.7 1.4.3.3.7.4 1.1.2zm-1-4.3h.1v-.1zM40.5 261.3c.4.5.9.9 1.5 1 .4 0 .8-.2 1.1-.3 1.4-.9 1.6-2.8 1.2-4.2-.3-1-1.2-2.1-2.4-1.9-1.6.3-2.1 1.9-2 3.3 0 .4 0 .9.2 1.3l.4.8zm1.6-3.7zm.6 1.9zm-.6-1.9zM63.4 240.7c.7-.2 1-.9 1.2-1.6.4-.7.3-1.6.2-2.3 0-.6-.2-1.1-.3-1.7-.1-.7-.7-1.9-1.6-1.6-1 .3-1.2 1.6-1.1 2.4v2.5c0 .5.2 1.2.5 1.6.2.3.7.7 1 .7zM68.2 212.4c0 .2.1.3.3.5.3.3.8.6 1.2.3 1-.5 1.2-1.7 1.2-2.7 0-.5-.2-1.1-.5-1.6 0-.6-.1-1.2-.5-1.7-.2-.3-.6-.7-1-.6-.7 0-1 .7-1.2 1.3l-.4.6c-.3.4-.4 1.1-.3 1.7 0 .5.2 1.2.5 1.6.2.2.4.5.7.6zM57.5 229.4c1.7-.3 2.8-2 2.8-3.6 0-.6 0-1.2-.2-1.8-.2-.4-.5-1-1-1-.9-.3-1.5.7-1.6 1.5l-.2.1c-1.1.2-1.4 1.6-1.4 2.5 0 .5.2 1.2.5 1.6.3.4.6.7 1 .7zm0-4.5zm0 0v-.1zm0-.4h.1zm0 0zm.1 0v-.2.1zM71.5 182.2c.5 0 .7-.4 1-.7l.7-1.6c.5-.8.6-1.7.6-2.7 0-.8-.4-2.1-1.4-2.3-1-.1-1.3 1-1.4 1.7v.2c-.1 0-.2 0 0 0-.6.5-.9 1.2-1 1.9a4 4 0 0 0 0 1.2c0 .6.1 1.2.5 1.7.2.3.6.7 1 .6zm-.5-5.6v0zm0 .2zM47.6 189.6l.2-1.2c.5-.7.6-1.8.3-2.6-.1-.6-.9-2.2-1.8-1.5-.6.4-1 1-1.1 1.6-1.3.3-1.4 2.3-1.2 3.3.2.8.6 1.8 1.5 2 1 .5 1.8-.8 2-1.6zm.2-1.5v-.1zM27 210l1.2-1.4c.7-.9.8-2.3.3-3.3-.2-.4-.4-.9-.9-1-.4-.1-.8 0-1 .3l-1.2 1.4c-.7.9-.8 2.3-.3 3.3.2.4.4.9.9 1 .4.1.8 0 1-.3zM61 198.1h.8c.3 0 .5-.2.7-.4l.4-.5.4-1.2c0-.7 0-1.5-.3-2.1a3 3 0 0 0-.8-1.2c-.3-.2-.6-.4-1-.3-.5 0-.9.3-1.2.7-.4.6-.5 1.2-.5 2 0 .7.1 1.5.6 2.2l.4.5.6.3zM75 237.9l2.3-2c1.3-1 .2-5.5-1.7-4l-2.2 2c-1.4 1.1-.2 5.6 1.6 4zM16.3 279.5c2.1 0 3.2-2.6 3-4.4-.1-.8-.4-2.4-1.6-2.3-.8 0-1.2 1-1.2 1.9H16c-.4 0-.7.5-1 .8-.2.5-.3 1.2-.2 1.7 0 .9.4 2.3 1.5 2.3zM30.7 278c1 0 1.3-1.5 1.3-2.4l-.2-1.6c0-.8-.4-2-1.3-2.2-1-.2-1.4 1-1.5 1.8v1.6l.1.6c0 .6.2 1.2.5 1.6.2.4.7.7 1 .7zM49.6 281.4l1.1-1.4c.7-1 .8-2.3.4-3.3-.2-.4-.5-1-1-1-.3-.2-.8 0-1 .3l-1.1 1.4c-.7.9-.8 2.3-.4 3.3.2.4.5.9 1 1 .3.1.8 0 1-.3zM53.3 246.6c-1.1 1.1-1.1 3.2-.4 4.5.3.5.6.9 1 1 .2.5.4 1 .7 1.2.9.6 1.7 0 2-1l.3-1.5c.3-.8.3-1.8.2-2.6 0-.4-.3-.8-.5-1.1-.2-.4-.3-.7-.6-.8-.9-.7-2-.6-2.7.3zm1.2 1c-.1 0 0 0 0 0zM58.2 263.6c-1.3.6-1.5 2.5-1.2 3.7.2 1 .9 2.3 2.1 2.3.2 0 .4 0 .5-.2.3 0 .5-.1.6-.3.7-.7.8-1.6.8-2.5 0-.7-.2-1.4-.6-2-.4-.8-1.4-1.4-2.2-1zM78.7 271.6c1-.5 1-2 .8-3l-.6-2.8c0-.7-.5-1.6-1.2-1.6-.8-.1-1.2.5-1.4 1.2-.5 1.4-.3 2.8.1 4.2.1.3.3.6.6.8.2.7.9 1.6 1.7 1.2zm.2-4.1zM70.2 258.5c.4-.2.7-.6.7-1l.2-.9.1-.9v-1l-.4-.7c0-.3-.2-.4-.4-.6-.3-.2-.7-.4-1.1-.2-.4.2-.7.7-.8 1.2l-.2.8v1.8c0 .3.2.5.3.8l.4.6c.4.2.8.4 1.2.1zM40.6 303.3a4 4 0 0 0 0 1.8c0 .3.2.5.3.8l.4.6c.4.2.8.4 1.2.2.4-.3.6-.7.7-1.2l.1-.4a4 4 0 0 0 0-1.8c0-.3 0-.6-.2-.8l-.5-.6c-.3-.2-.7-.4-1-.2-.5.3-.8.7-.9 1.2v.4zM31.2 294c0 .4.3 1 .7 1.3.3.3.7.5 1.1.2.4-.2.6-.7.8-1.1l.4-1.2c.2-.5.2-1.3 0-1.8 0-.5-.3-1.1-.7-1.4-.3-.3-.7-.4-1-.2-.5.3-.7.7-.9 1.1l-.4 1.2c-.2.6-.2 1.3 0 1.9zM61.5 288.6l-.3-.1a1 1 0 0 0-.7.4c-.4.4-.5.9-.6 1.4l-.1.8v1l.2.8.4.7.5.4h.4c.3 0 .5-.1.7-.3.4-.4.5-1 .6-1.5l.1-.8v-1l-.2-.8-.4-.6a1 1 0 0 0-.6-.4zM15 296.9c1.6-1 .8-5.6-1-4.5-1.5 1-.6 5.6 1 4.5z"/></g><g clip-path="url(#f)"><path fill="#FAE6E7" d="M189.2 170.7c4-.4 8.1-1.3 12.1-.7 4.8.9 9 4 13.5 5.4 6.8 2.1 13.9.7 20.5-1.4 5.3-1.7 12.2-2.6 16.3-6.7 2.4-2.4 3.6-5.7 5.3-8.6 6-10.5 10-21.6-3.8-27.3-3.7-1.6-7.7-2.3-11.1-4.3-4.7-2.7-8.2-7.6-13.4-9-2.2-.6-4.5-.6-6.5-1.5-2.9-1.2-4.7-4-7.3-5.7-3.2-2-7.2-2-11-1.9-6.2.2-9 2.4-14.2 4.8-5.2 2.4-10.6 2-14 7.4-1.4 2.1-1.6 4.7-2.5 7.1-1.1 3.2-3.3 6-5.2 8.8a29.8 29.8 0 0 0-5.6 15.9c-.1 13.8 14.5 18.5 26 17.7h.9zM96.8 22.4c-.2-4-1-8.2 0-12.1 1-4.8 4.2-8.7 6-13.3a33.7 33.7 0 0 0-.5-20.4c-1.4-5.5-2-12.4-5.9-16.7-2.2-2.5-5.5-3.9-8.4-5.7-10.1-6.4-21-11-27.4 2.5-1.7 3.6-2.7 7.6-4.8 11-3 4.5-8 7.7-9.7 12.9-.7 2-.7 4.4-1.7 6.4-1.4 2.8-4.4 4.4-6.1 7-2.2 3-2.4 7-2.4 10.8 0 6.3 1.9 9.2 4 14.5 2.3 5.2 1.5 10.6 6.8 14.3 2 1.5 4.6 1.9 7 2.8 3.1 1.3 5.8 3.6 8.5 5.7 4.6 3.3 10 6 15.6 6.3 13.7.8 19.2-13.5 19-25.1v-.9z"/><path fill="#FDD358" d="M197 201.5c4.2 1.6 7.6 1.8 11.9 2.4 2.9.3 6.3.5 8.3-1.6 1.5-1.6 1.7-4 2.9-6 .8-1.4 2.1-2.5 2.8-4 1-2.5-.3-4.8-.5-7.2-.2-2 .5-4.3.3-6.2-.6-3.8-4.3-8.3-8.3-8.7-4.6-.4-7.4 3.1-10.9 5.2-3.4 2.1-8.3 2.7-10.7 6.2-1.6 2.2-1.5 5.3-2.6 7.8-.5 1-1.2 2-1.4 3-.5 2 .4 4.2 1.9 5.6 1.5 1.5 3.4 2.3 5.3 3l1 .5zM105.5 317.9c4.2 1.6 7.5 1.8 11.8 2.4 3 .3 6.3.5 8.4-1.6 1.5-1.6 1.7-4 2.8-6 .8-1.4 2.2-2.5 2.8-4 1-2.5-.2-4.8-.5-7.2-.2-2 .6-4.3.3-6.2-.6-3.8-4.3-8.3-8.3-8.7-4.6-.4-7.3 3.1-10.8 5.2-3.4 2-8.4 2.7-10.8 6.2-1.5 2.2-1.4 5.3-2.6 7.8-.4 1-1.1 2-1.4 3-.5 2 .5 4.2 2 5.6 1.4 1.5 3.3 2.3 5.3 3l1 .5zM111.2 39.5c4.2 1.6 7.5 1.8 11.8 2.4 3 .3 6.4.5 8.4-1.6 1.5-1.6 1.7-4 2.8-6 .9-1.3 2.2-2.4 2.8-4 1-2.5-.2-4.8-.5-7.2-.2-2 .6-4.3.3-6.2-.6-3.8-4.2-8.3-8.3-8.7-4.6-.4-7.3 3.1-10.8 5.3-3.4 2-8.3 2.6-10.8 6-1.5 2.3-1.4 5.4-2.6 7.9-.4 1-1.1 2-1.4 3.1-.5 2 .5 4.1 2 5.6 1.4 1.4 3.4 2.2 5.3 3l1 .4z"/><path fill="#FAE6E7" d="M23.2 232.2c-.2-4-1-8.2 0-12.1 1-4.8 4.2-8.7 6-13.3a33.7 33.7 0 0 0-.4-20.4c-1.5-5.5-2-12.4-6-16.7-2.2-2.5-5.5-3.9-8.4-5.7-10-6.4-21-11-27.4 2.4-1.7 3.7-2.6 7.7-4.8 11-3 4.6-8 7.8-9.7 13-.7 2-.7 4.4-1.7 6.4-1.4 2.8-4.3 4.4-6.1 7-2.2 3-2.4 7-2.4 10.8 0 6.3 2 9.2 4.1 14.5 2.2 5.2 1.4 10.6 6.7 14.3 2 1.5 4.7 1.9 7 2.8 3.2 1.3 5.8 3.6 8.6 5.7 4.6 3.3 9.9 6 15.5 6.3 13.8.8 19.2-13.6 19-25.1v-.9z"/><path fill="#FDD358" d="M37.6 249.3c4.2 1.6 7.5 1.8 11.9 2.4 2.9.3 6.3.5 8.3-1.6 1.5-1.6 1.7-4 2.8-6 .9-1.3 2.2-2.5 2.8-4 1-2.5-.2-4.8-.4-7.2-.2-2 .5-4.3.2-6.2-.5-3.8-4.2-8.3-8.3-8.7-4.5-.4-7.3 3.1-10.8 5.3-3.4 2-8.3 2.6-10.7 6-1.6 2.3-1.5 5.4-2.6 7.9-.5 1-1.2 2-1.5 3.1-.5 2 .5 4.1 2 5.6 1.5 1.4 3.4 2.2 5.3 3l1 .4z"/></g><g><g fill="#606060"><path d="M27 90.9l-4.3 1.5a7 7 0 0 1 .9 0h3.3v.6h-5v-1l4-1.5-4-1.5v-1h5v.7h-2.8a12.4 12.4 0 0 1-1.4 0l4.2 1.5v.7zM24.3 83.8l-2.4-1.2v-.8l3 1.7h2v.7H25L22 86V85l2.3-1.3zM22 75.1c0-.6 0-1.1.3-1.4s.7-.5 1.1-.5l.8.2c.3.1.5.4.6.6.2.3.2.7.2 1.2v.6h2v.7h-5v-1.4zm.6 0v.7h1.8v-.5c0-.4 0-.7-.2-1-.2-.2-.4-.3-.7-.3-.3 0-.6.1-.7.3-.2.2-.2.5-.2.9zM24.4 66.4c.5 0 1 .1 1.4.3.4.2.7.4.9.8.2.3.3.7.3 1.2 0 .6-.1 1-.3 1.4s-.5.6-1 .7c-.3.2-.8.3-1.3.3s-1-.1-1.3-.3c-.4-.1-.7-.4-1-.7s-.2-.8-.2-1.4c0-.5 0-.9.3-1.2s.5-.6.9-.8c.4-.2.8-.3 1.3-.3zm0 3.9c.6 0 1-.1 1.4-.4.4-.2.6-.6.6-1.2 0-.5-.2-.9-.6-1.1-.3-.3-.8-.4-1.4-.4-.6 0-1 .1-1.4.4-.3.2-.5.6-.5 1.1 0 .6.2 1 .5 1.2.4.3.8.4 1.4.4zM22 62.5c0-.6 0-1 .3-1.4.2-.3.6-.4 1-.4l.7.1c.2 0 .3.2.5.4l.2.4 2.2-1.4v1l-2 1.1v.9h2v.7h-5v-1.4zm.6 0v.7h1.7v-.6l-.2-.9c-.2-.2-.4-.3-.7-.3-.3 0-.5.1-.6.3l-.2.9zM27 56.4v.8h-4.4v1.5h-.7v-3.8h.7v1.5h4.3zM27 52v.8h-5V50h.6v2h1.6v-2h.7v2h2zM24.4 43.3c.5 0 1 0 1.4.2.4.2.7.5.9.8s.3.8.3 1.3-.1 1-.3 1.3a2 2 0 0 1-1 .8l-1.3.2c-.5 0-1 0-1.3-.2a2 2 0 0 1-1-.8l-.2-1.3c0-.5 0-1 .3-1.3.2-.4.5-.6.9-.8.4-.2.8-.2 1.3-.2zm0 3.8c.6 0 1-.1 1.4-.4.4-.2.6-.6.6-1.1 0-.5-.2-1-.6-1.2-.3-.2-.8-.3-1.4-.3-.6 0-1 0-1.4.3-.3.3-.5.6-.5 1.2 0 .5.2.9.5 1.1.4.3.8.4 1.4.4zM27 40.8h-5V40h4.3V38h.6v2.9zM27 34v2h-.5l-.2-.6h-3.8l-.1.6h-.5v-2h.5l.1.7h3.8l.2-.6h.4zM24.4 27.3c.5 0 1 .1 1.4.3.4.2.7.4.9.8.2.3.3.7.3 1.3 0 .5-.1 1-.3 1.3a2 2 0 0 1-1 .7c-.3.2-.8.3-1.3.3s-1 0-1.3-.3a2 2 0 0 1-1-.7l-.2-1.3c0-.6 0-1 .3-1.3.2-.4.5-.6.9-.8.4-.2.8-.3 1.3-.3zm0 3.9c.6 0 1-.1 1.4-.4.4-.2.6-.6.6-1.1 0-.6-.2-1-.6-1.2-.3-.2-.8-.4-1.4-.4-.6 0-1 .2-1.4.4-.3.2-.5.6-.5 1.2 0 .5.2.9.5 1.1.4.3.8.4 1.4.4z"/></g><path fill="#FFF" d="M35.4 27.3H180v175.5H35.4z"/></g></svg>