<svg xmlns="http://www.w3.org/2000/svg" xmlns:xlink="http://www.w3.org/1999/xlink" viewBox="0 0 200 227.7"><path fill="#F0ECE6" d="M0 .3h200V228H0z"/><defs><path id="a" d="M0 .3h200V228H0z"/></defs><clipPath id="b"><use xlink:href="#a" overflow="visible"/></clipPath><g clip-path="url(#b)"><path fill="#FFF6F8" d="M35 120.2c-.2-4.1-1-8.2-.1-12.2 1-4.8 4.3-8.7 6-13.2a33.7 33.7 0 0 0-.4-20.5c-1.4-5.4-2-12.4-6-16.7-2.2-2.5-5.5-3.9-8.3-5.7-10.2-6.4-21-11-27.5 2.5C-3 58-3.9 62-6 65.4c-3 4.5-8 7.7-9.7 12.9-.7 2.1-.7 4.4-1.7 6.4-1.4 2.8-4.3 4.5-6.1 7-2.2 3.1-2.4 7.1-2.4 10.9 0 6.2 2 9.2 4.1 14.4 2.2 5.3 1.4 10.7 6.7 14.4 2 1.4 4.7 1.8 7 2.8 3.2 1.3 5.8 3.6 8.6 5.6 4.6 3.4 9.9 6 15.6 6.4 13.7.8 19.2-13.6 19-25.2v-.8zM239.5 200.7c-.2-4-1-8.2 0-12.2 1-4.7 4.2-8.6 6-13.2a33.7 33.7 0 0 0-.4-20.5c-1.5-5.4-2-12.3-6-16.6-2.2-2.6-5.5-4-8.4-5.7-10-6.4-21-11-27.4 2.4-1.7 3.6-2.7 7.6-4.8 11-3 4.6-8 7.8-9.7 13-.7 2-.7 4.4-1.7 6.4-1.4 2.8-4.4 4.4-6.1 7-2.2 3-2.4 7-2.4 10.8 0 6.3 1.9 9.2 4 14.5 2.3 5.2 1.5 10.7 6.8 14.3 2 1.5 4.6 1.9 7 2.8 3.2 1.3 5.8 3.6 8.6 5.7 4.5 3.3 9.8 6 15.5 6.4 13.8.7 19.2-13.6 19-25.2v-.9z"/><g fill="#606060"><path d="M-8.2 220.6c-.1-.3-.4-.6-.8-.8 0-.2-.2-.3-.4-.5a8.8 8.8 0 0 0-6-1.6c-1 0-2.4 1-1.5 2a7.6 7.6 0 0 0 7 2.6c.8-.1 2.1-.6 1.7-1.7zM14.3 227.6a6 6 0 0 0-5.1.3c-.5.3-.8.6-.8 1.2.1.5.6 1 1.1 1.1l4 1.3c1 .3 2.4.5 3.2-.3.8-.8.1-1.7-.7-2l-.6-.2c0-.6-.5-1.2-1-1.4zM6.2 241.3c.8-.4 1-1.4.1-2a9.1 9.1 0 0 0-7-.9c-1.3.3-1.6 1.4-.6 2.2 1.2 1 2.8 1.7 4.4 2 1 .1 2.5.1 3-.9v-.4zM32.8 250.3l-.2-.3c0-.3 0-.5-.3-.7a4.7 4.7 0 0 0-5.1-.8c-.5.3-.8.7-.7 1.2 0 .6.5.9 1 1.1l1.7.9c.5.2 1.3.3 1.8.2.5 0 1.1-.2 1.5-.6.2-.2.5-.6.3-1zm-4.4.4l-.1-.1zM38.2 234.1c.6-.3 1-.7 1.1-1.4l-.1-1c-.7-1.5-2.6-2-4-1.7-1.1.2-2.3 1-2.2 2.2.1 1.6 1.6 2.3 3 2.4.4 0 1 0 1.3-.2.4 0 .7 0 1-.3zm-3.5-2zm2-.3zm-2 .3zM20.3 209c0-.7-.7-1.1-1.5-1.3-.6-.4-1.5-.5-2.2-.5l-1.7.1c-.8 0-2 .6-1.8 1.5.2 1 1.5 1.3 2.3 1.4l2.4.2c.6 0 1.2 0 1.7-.3.3-.2.8-.6.8-1zM-7.3 201.2l.5-.3c.4-.3.7-.7.5-1.2-.4-1-1.6-1.4-2.5-1.5-.6 0-1.2 0-1.7.3-.6 0-1.2 0-1.7.3-.3.2-.8.6-.8 1 0 .6.6 1 1.2 1.3l.5.5c.4.3 1.1.5 1.7.5.5 0 1.2 0 1.7-.3l.6-.6zM8.4 213.7c0-1.7-1.6-3-3.2-3.2-.7-.1-1.3-.2-1.9 0-.3.1-1 .4-1.1.8-.4.9.6 1.6 1.4 1.8v.3c0 1 1.5 1.5 2.3 1.6.6 0 1.2 0 1.7-.4.4-.2.8-.5.8-1zm-4.5-.5zm0 0zm-.4-.2zm0 0zm0 0h-.1zM-37 194.4c0-.4-.2-.7-.6-1l-1.4-1c-.8-.5-1.7-.7-2.6-.8-.9 0-2.2.2-2.4 1.1-.3 1 .7 1.4 1.5 1.6l.2.1s0 .1 0 0c.4.6 1 1 1.7 1l1.2.3c.6 0 1.3 0 1.7-.3.4-.2.8-.5.8-1zm-5.5 0h0zm.2 0zM-32.3 219l-1.2-.3c-.6-.6-1.6-.7-2.4-.6-.7 0-2.3.6-1.8 1.6.3.7.9 1 1.5 1.4.2 1.2 2.1 1.6 3.2 1.5.8-.1 1.8-.4 2.2-1.2.5-1-.7-2-1.5-2.4zm-1.5-.3zM-14.3 241.8l-1.3-1.3c-.8-.8-2.1-1-3.2-.7-.4.1-1 .3-1.1.8-.2.3-.1.8.2 1l1.3 1.4c.8.7 2.1 1 3.2.7.4-.2 1-.4 1.1-.8.2-.4.1-.8-.2-1.1zM-22.3 206.6v-.5-.2c0-.3 0-.6-.2-.8l-.5-.4c-.3-.3-.8-.4-1.1-.5-.7-.2-1.5-.2-2.2 0a3 3 0 0 0-1.2.7c-.3.2-.5.6-.5 1 0 .5.3.9.6 1.2.5.4 1.2.6 1.9.7a4 4 0 0 0 2.3-.3c.2 0 .4-.2.5-.4l.4-.5zM18.8 197.2l-1.6-2.5c-1-1.4-5.6-.8-4.2 1.2l1.6 2.5c1 1.5 5.6.8 4.2-1.2zM53.6 260.2c.2-2-2.2-3.4-4-3.4-.9 0-2.4.2-2.5 1.3 0 .8.9 1.3 1.7 1.5v.4c0 .4.4.8.7 1 .4.3 1 .5 1.6.5.9 0 2.4-.2 2.5-1.3zM53.8 245.8c0-1-1.4-1.5-2.3-1.5l-1.6-.1c-.8 0-2.1.2-2.4 1-.3 1 .9 1.6 1.6 1.7l.3.1h1.4l.6.1c.5 0 1.2 0 1.7-.3.3-.2.7-.6.7-1zM59.2 227.3l-1.3-1.2c-.8-.8-2.1-1-3.2-.7-.4.1-1 .3-1.1.8-.2.3-.1.8.2 1l1.3 1.4c.8.7 2.1 1 3.2.6.4 0 1-.3 1.1-.7.2-.4.2-.8-.2-1.2zM25 219.8c1 1.2 3 1.5 4.5.9.5-.2 1-.5 1.2-1 .4 0 .9-.2 1.1-.5.8-.8.2-1.7-.7-2l-1.4-.5c-.8-.4-1.8-.5-2.6-.5-.4 0-.9.1-1.2.4-.4 0-.7.2-.9.4-.7.9-.7 2 0 2.8zm1.2-1.1v0zM42.5 216.9c.4 1.3 2.4 1.7 3.6 1.6 1-.2 2.4-.7 2.5-1.9 0-.2 0-.4-.2-.6a1 1 0 0 0-.2-.6c-.6-.7-1.5-1-2.4-1-.7 0-1.4 0-2.1.3-.8.4-1.5 1.2-1.2 2.2zM52.8 197.3c-.4-1-2-1.2-3-1.1l-2.8.2c-.6.1-1.6.4-1.8 1.1-.1.8.5 1.2 1 1.5 1.4.6 2.9.7 4.3.4.3 0 .6-.2.9-.5.7-.1 1.7-.7 1.4-1.6zm-4.1-.6zM38.8 204.4c-.2-.5-.6-.8-1-1l-.8-.2-.9-.2a3 3 0 0 0-1 0c-.2 0-.5 0-.7.2-.3 0-.5.2-.7.3-.3.3-.5.7-.3 1.1.2.4.6.8 1 1l.8.2 1 .2h.9c.2 0 .5 0 .8-.2l.6-.3c.3-.3.5-.7.3-1.1zM80 238.7a4 4 0 0 0 1.8.3l.8-.2.6-.4c.3-.3.5-.7.3-1-.2-.5-.6-.8-1-1l-.4-.1a4 4 0 0 0-1.8-.3l-.8.2-.7.4c-.3.3-.5.7-.3 1 .2.5.6.8 1 1l.5.1zM69.6 247.1c.5 0 1.2-.2 1.5-.6.3-.2.5-.6.3-1-.2-.5-.6-.7-1-1l-1.2-.5c-.5-.3-1.3-.3-1.8-.3-.5.1-1.1.3-1.5.6-.2.3-.4.7-.3 1.1.2.5.7.7 1 1l1.2.5c.5.2 1.3.3 1.8.2zM67.7 216.3l-.1.4c0 .3 0 .5.3.7.3.4.8.6 1.3.7a131.2 131.2 0 0 1 1.8.3l.9-.1.7-.3.4-.5.1-.4c0-.2 0-.5-.3-.7-.3-.4-.8-.6-1.4-.7l-.7-.2a3 3 0 0 0-1-.1 2.7 2.7 0 0 0-1.6.4 1 1 0 0 0-.4.5zM70.8 263.4c-.9-1.6-5.6-1.3-4.7.5.9 1.7 5.6 1.3 4.7-.5z"/></g><g fill="#606060"><path d="M157.5 2.6c.4-.1.6-.5.8-.9l.4-.5c1.1-1.8 1.3-4 1-6-.3-1-1.2-2.3-2.2-1.4a7.6 7.6 0 0 0-1.8 7.3c.2.7.8 2 1.8 1.5zM153.1 25.8a6 6 0 0 0-.9-5.1c-.3-.4-.7-.8-1.2-.6-.5.1-.9.7-1 1.2l-.8 4c-.3 1-.2 2.5.7 3.3.8.6 1.7-.1 1.9-1V27c.7 0 1.2-.6 1.3-1.2zM138.6 19.2c.5.8 1.6.9 2 0 1-2.4 1-4.9.1-7.2-.4-1.2-1.5-1.4-2.2-.3-1 1.3-1.4 3-1.5 4.6 0 1 .1 2.5 1.2 2.9h.4zM132.7 46.6c.1 0 .2 0 .3-.2.2 0 .5 0 .6-.3a4.7 4.7 0 0 0 .2-5.2c-.3-.4-.8-.7-1.3-.6-.5.2-.7.7-1 1.2l-.6 1.8c-.2.5-.2 1.3 0 1.8 0 .4.3 1 .7 1.4.3.2.7.4 1.1.1zm-.9-4.3zM149.3 50.3c.5.5.9.8 1.6.9.3 0 .7-.1 1-.3 1.4-.8 1.7-2.7 1.2-4.2-.3-1-1.2-2-2.4-1.8-1.6.3-2 1.8-2 3.2 0 .4 0 1 .2 1.3l.4.9zm1.6-3.8zm.6 2v-.3.2zm-.5-2c0 .1 0 .2.2.3l-.2-.2zM172.2 29.6c.8-.1 1.1-.8 1.2-1.6.4-.7.4-1.6.2-2.3l-.3-1.6c0-.8-.7-2-1.6-1.7-1 .3-1.1 1.6-1.1 2.4v2.5c0 .5.2 1.2.6 1.7.2.3.6.6 1 .6zM177 1.3c0 .2.2.4.3.5.3.4.8.6 1.3.4.9-.5 1.2-1.8 1.1-2.7 0-.6-.2-1.2-.4-1.7 0-.6-.2-1.2-.5-1.6-.2-.3-.7-.7-1-.7-.7.1-1.1.7-1.3 1.4l-.4.5c-.3.4-.3 1.2-.3 1.7s.2 1.2.5 1.6c.2.3.4.5.7.6zM166.3 18.3c1.7-.2 2.8-2 2.8-3.6 0-.6 0-1.2-.2-1.8-.2-.3-.5-.9-1-1-.8-.3-1.5.7-1.6 1.5l-.2.2c-1.1.1-1.4 1.5-1.3 2.4 0 .6.1 1.2.5 1.7.2.3.6.7 1 .6zm0-4.5zm0 0zm.1-.4zm0 0zm0 0l.1-.1zM180.3-28.9c.5 0 .8-.3 1-.7l.8-1.6c.4-.8.6-1.7.5-2.7 0-.8-.4-2-1.4-2.2-.9-.2-1.3.9-1.4 1.6v.2c-.1 0-.1.1 0 0-.6.5-.9 1.2-.9 2a4 4 0 0 0-.1 1.1c0 .6.2 1.3.5 1.7.2.3.6.7 1 .6zm-.5-5.6v0zm0 .2zM156.4-21.5l.2-1.2c.5-.7.6-1.8.4-2.5-.2-.7-1-2.2-1.9-1.6-.6.4-1 1-1.1 1.6-1.3.4-1.4 2.3-1.2 3.4.2.8.6 1.7 1.5 2 1 .4 1.8-.9 2.1-1.7zm.2-1.5v-.1.1zM135.9-1l1.1-1.5c.7-.9.8-2.2.3-3.3-.2-.3-.4-.9-.9-1-.4-.1-.8 0-1 .3L134.1-5c-.7 1-.8 2.3-.3 3.3.2.4.4 1 .9 1 .4.2.8.1 1-.2zM169.9-13h.7c.3 0 .6-.2.7-.4l.4-.5.4-1.2c0-.7 0-1.5-.3-2.1a3 3 0 0 0-.7-1.1c-.3-.3-.7-.4-1.1-.4-.5 0-.9.3-1.1.7-.4.6-.6 1.3-.6 2s.2 1.5.6 2.2l.4.5.6.3zM183.9 26.8L186 25c1.4-1.1.2-5.6-1.7-4l-2.2 1.9c-1.3 1.1-.2 5.6 1.7 4zM125.1 68.5c2.2 0 3.2-2.6 3-4.4-.1-.9-.4-2.4-1.6-2.3-.8 0-1.2 1-1.2 1.8h-.1l-.4.1c-.4 0-.7.4-1 .8-.2.4-.3 1.1-.2 1.7 0 .8.4 2.2 1.5 2.3zM139.5 67c1 0 1.3-1.5 1.3-2.4l-.1-1.6c-.1-.8-.4-2.1-1.4-2.3-1-.1-1.4 1-1.5 1.8v1.7l.1.6c0 .5.2 1.1.5 1.6.3.3.7.7 1 .6zM158.4 70.4l1.2-1.5c.7-.8.8-2.2.3-3.2-.2-.4-.5-1-1-1-.3-.2-.7-.1-1 .2l-1.1 1.5c-.7.8-.8 2.2-.4 3.2.2.4.5 1 1 1 .3.2.8.1 1-.2zM162.1 35.5c-1.1 1.2-1.1 3.2-.4 4.6.3.5.7.8 1.1 1 .1.4.3.9.7 1.1.8.7 1.6 0 1.9-1l.3-1.4c.3-.8.3-1.8.2-2.6 0-.4-.2-.9-.5-1.2-.1-.3-.3-.6-.6-.8-.9-.7-2-.5-2.7.3zm1.2 1zM167 52.6c-1.3.6-1.5 2.5-1.2 3.7.2 1 .9 2.3 2.1 2.3l.6-.2c.2 0 .4-.2.6-.4.6-.6.8-1.6.7-2.4 0-.8-.2-1.5-.6-2-.4-.9-1.3-1.5-2.2-1zM187.5 60.6c1-.5 1-2.1.9-3l-.6-2.9c-.2-.6-.6-1.5-1.3-1.6-.7 0-1.1.6-1.4 1.2-.4 1.4-.3 2.9.2 4.3 0 .3.2.5.5.7.2.8.9 1.7 1.7 1.3zm.2-4.2zM179 47.5c.4-.2.7-.7.8-1.1l.1-.8.2-1-.1-.9c0-.3-.2-.5-.3-.8l-.5-.6c-.3-.2-.7-.4-1-.1-.5.2-.8.7-.9 1.1l-.1.8c-.1.3-.2.6-.1.9v1l.3.7c.1.3.3.5.5.6.3.3.7.4 1 .2zM149.5 92.2a4 4 0 0 0 0 1.9c0 .3 0 .5.2.8l.5.6c.3.2.7.4 1 .1.5-.2.8-.7.9-1.1V94a4 4 0 0 0 .1-1.9l-.3-.7c-.1-.3-.2-.5-.4-.6-.4-.3-.8-.4-1.2-.2-.4.2-.6.7-.7 1.1l-.1.4zM140 83c0 .4.3 1 .7 1.3.3.3.7.4 1.1.2.4-.3.6-.7.8-1.1l.4-1.2c.2-.6.2-1.3 0-1.9 0-.4-.3-1-.7-1.4-.3-.2-.7-.4-1-.1-.5.2-.7.7-.9 1.1l-.4 1.2c-.2.5-.2 1.3 0 1.8zM170.4 77.5h-.4a1 1 0 0 0-.7.3c-.4.4-.5 1-.6 1.5l-.1.8v1l.3.8c0 .3.2.5.4.7 0 .1.3.3.5.3l.3.1c.3 0 .6-.1.7-.4.4-.4.5-.9.6-1.4l.1-.8v-1l-.2-.8-.4-.7-.5-.4zM123.9 85.9c1.5-1 .7-5.7-1-4.6-1.6 1-.7 5.7 1 4.6z"/></g><path fill="#FDD358" d="M167.2 132.4c4.2 1.6 7.6 1.8 11.9 2.4 3 .3 6.3.5 8.3-1.6 1.5-1.6 1.7-4 2.9-6 .8-1.4 2.2-2.5 2.8-4 1-2.5-.2-4.8-.5-7.2-.2-2 .6-4.3.3-6.2-.6-3.8-4.3-8.3-8.3-8.7-4.6-.4-7.4 3.1-10.9 5.2-3.4 2.1-8.3 2.7-10.7 6.2-1.6 2.2-1.5 5.3-2.6 7.8-.5 1-1.2 2-1.4 3-.5 2 .4 4.2 1.9 5.7s3.4 2.2 5.3 3l1 .4zM87.3 28.5c4.2 1.6 7.5 1.9 11.8 2.4 3 .4 6.4.6 8.4-1.5 1.5-1.6 1.7-4 2.8-6 .9-1.4 2.2-2.5 2.8-4 1-2.5-.2-4.8-.4-7.3-.2-2 .5-4.2.2-6.1-.5-3.8-4.2-8.3-8.3-8.7-4.5-.5-7.3 3-10.8 5.2-3.4 2-8.3 2.7-10.7 6.1-1.6 2.3-1.5 5.3-2.6 7.8-.5 1-1.2 2-1.5 3.1-.5 2 .5 4.2 2 5.6 1.4 1.4 3.4 2.3 5.3 3l1 .4zM102.8 245.6c4.2 1.6 7.5 1.8 11.9 2.4 2.9.3 6.3.5 8.3-1.6 1.5-1.6 1.7-4 2.8-6 .9-1.4 2.2-2.5 2.8-4 1-2.5-.2-4.8-.4-7.2-.2-2 .5-4.3.2-6.2-.5-3.8-4.2-8.3-8.3-8.7-4.5-.4-7.3 3.1-10.8 5.2-3.4 2-8.3 2.7-10.7 6.2-1.6 2.2-1.5 5.3-2.6 7.8-.5 1-1.2 2-1.5 3-.5 2 .5 4.2 2 5.6 1.4 1.5 3.4 2.3 5.3 3l1 .5z"/></g><g><g fill="#606060"><path d="M27 90.9l-4.3 1.5a7 7 0 0 1 .9 0h3.3v.6h-5v-1l4-1.5-4-1.5v-1h5v.7h-2.8a12.4 12.4 0 0 1-1.4 0l4.2 1.5v.7zM24.3 83.8l-2.4-1.2v-.8l3 1.7h2v.7H25L22 86V85l2.3-1.3zM22 75.1c0-.6 0-1.1.3-1.4s.7-.5 1.1-.5l.8.2c.3.1.5.4.6.6.2.3.2.7.2 1.2v.6h2v.7h-5v-1.4zm.6 0v.7h1.8v-.5c0-.4 0-.7-.2-1-.2-.2-.4-.3-.7-.3-.3 0-.6.1-.7.3-.2.2-.2.5-.2.9zM24.4 66.4c.5 0 1 .1 1.4.3.4.2.7.4.9.8.2.3.3.7.3 1.2 0 .6-.1 1-.3 1.4s-.5.6-1 .7c-.3.2-.8.3-1.3.3s-1-.1-1.3-.3c-.4-.1-.7-.4-1-.7s-.2-.8-.2-1.4c0-.5 0-.9.3-1.2s.5-.6.9-.8c.4-.2.8-.3 1.3-.3zm0 3.9c.6 0 1-.1 1.4-.4.4-.2.6-.6.6-1.2 0-.5-.2-.9-.6-1.1-.3-.3-.8-.4-1.4-.4-.6 0-1 .1-1.4.4-.3.2-.5.6-.5 1.1 0 .6.2 1 .5 1.2.4.3.8.4 1.4.4zM22 62.5c0-.6 0-1 .3-1.4.2-.3.6-.4 1-.4l.7.1c.2 0 .3.2.5.4l.2.4 2.2-1.4v1l-2 1.1v.9h2v.7h-5v-1.4zm.6 0v.7h1.7v-.6l-.2-.9c-.2-.2-.4-.3-.7-.3-.3 0-.5.1-.6.3l-.2.9zM27 56.4v.8h-4.4v1.5h-.7v-3.8h.7v1.5h4.3zM27 52v.8h-5V50h.6v2h1.6v-2h.7v2h2zM24.4 43.3c.5 0 1 0 1.4.2.4.2.7.5.9.8s.3.8.3 1.3-.1 1-.3 1.3a2 2 0 0 1-1 .8l-1.3.2c-.5 0-1 0-1.3-.2a2 2 0 0 1-1-.8l-.2-1.3c0-.5 0-1 .3-1.3.2-.4.5-.6.9-.8.4-.2.8-.2 1.3-.2zm0 3.8c.6 0 1-.1 1.4-.4.4-.2.6-.6.6-1.1 0-.5-.2-1-.6-1.2-.3-.2-.8-.3-1.4-.3-.6 0-1 0-1.4.3-.3.3-.5.6-.5 1.2 0 .5.2.9.5 1.1.4.3.8.4 1.4.4zM27 40.8h-5V40h4.3V38h.6v2.9zM27 34v2h-.5l-.2-.6h-3.8l-.1.6h-.5v-2h.5l.1.7h3.8l.2-.6h.4zM24.4 27.3c.5 0 1 .1 1.4.3.4.2.7.4.9.8.2.3.3.7.3 1.3 0 .5-.1 1-.3 1.3a2 2 0 0 1-1 .7c-.3.2-.8.3-1.3.3s-1 0-1.3-.3a2 2 0 0 1-1-.7l-.2-1.3c0-.6 0-1 .3-1.3.2-.4.5-.6.9-.8.4-.2.8-.3 1.3-.3zm0 3.9c.6 0 1-.1 1.4-.4.4-.2.6-.6.6-1.1 0-.6-.2-1-.6-1.2-.3-.2-.8-.4-1.4-.4-.6 0-1 .2-1.4.4-.3.2-.5.6-.5 1.2 0 .5.2.9.5 1.1.4.3.8.4 1.4.4z"/></g><path fill="#FFF" d="M35.4 27.3H180v175.5H35.4z"/></g></svg>