<svg xmlns="http://www.w3.org/2000/svg" viewBox="0 0 110.6 138"><path fill="#FFF" d="M3 53h105V39L73 2H12.7a9.7 9.7 0 0 0-9.6 9.7M82.8 39c-5.2 0-9.8-5.3-9.8-10.5V3.4L106.7 39H82.8zM108 56H3v69.9C3 131 7.5 136 12.7 136h86.1c5.3 0 9.3-4.3 9.3-9.5L108 56z"/><g fill="#FFD176" stroke="#FFD176" stroke-width=".5" stroke-miterlimit="10"><path d="M23.7 24.3c-.7.4-1.8.6-3 .6a5 5 0 0 1-3.8-1.4c-1-1-1.5-2.3-1.5-4a5.5 5.5 0 0 1 5.7-5.8c1 0 2 .2 2.6.5v2c-.7-.4-1.5-.6-2.5-.6s-2 .4-2.6 1a4 4 0 0 0-1 2.8c0 1.2.4 2 1 2.7s1.4 1 2.5 1c1 0 1.9-.2 2.6-.7v2zM26.2 22.2c.9.7 1.8 1 3 1 .6 0 1.1 0 1.4-.3.4-.2.5-.5.5-1 0-.2-.1-.5-.4-.8-.3-.3-1-.6-2-1-.9-.5-1.5-1-2-1.4-.3-.5-.5-1.1-.5-1.8 0-1 .4-1.7 1.1-2.3.8-.5 1.7-.8 3-.8 1 0 2 .1 2.6.4v2c-.7-.5-1.6-.7-2.6-.7-.6 0-1 0-1.4.3-.3.2-.5.5-.5 1 0 .2.1.5.4.8l1.7 1c1 .4 1.8.9 2.2 1.4.4.5.6 1.1.6 1.8 0 1-.3 1.8-1 2.3a5 5 0 0 1-3.1.8c-1.2 0-2.2-.2-3-.6v-2.1zM35.7 22.2c.9.7 1.8 1 3 1 .6 0 1.1 0 1.4-.3.4-.2.5-.5.5-1 0-.2-.1-.5-.4-.8-.3-.3-1-.6-2-1-.9-.5-1.5-1-2-1.4-.3-.5-.5-1.1-.5-1.8 0-1 .3-1.7 1.1-2.3.8-.5 1.7-.8 3-.8 1 0 2 .1 2.5.4v2c-.7-.5-1.5-.7-2.5-.7-.6 0-1 0-1.4.3s-.5.5-.5 1c0 .2 0 .5.3.8l1.8 1c1 .4 1.8.9 2.2 1.4.4.5.6 1.1.6 1.8 0 1-.4 1.8-1 2.3a5 5 0 0 1-3.1.8c-1.2 0-2.2-.2-3-.6v-2.1zM44.5 22.5c.7.6 1.5.8 2.5.8.6 0 1.1-.1 1.5-.4.4-.3.6-.7.6-1.2 0-1.1-.9-1.7-2.6-1.7h-1v-1.6h1c1.5 0 2.2-.5 2.2-1.6 0-1-.5-1.4-1.7-1.4-.7 0-1.4.2-2.1.7v-1.7c.7-.4 1.6-.6 2.6-.6s1.8.2 2.4.7c.6.5 1 1.1 1 2 0 1.3-.8 2.2-2.2 2.6.7.1 1.3.4 1.8.9.4.4.7 1 .7 1.7 0 1-.4 1.8-1.1 2.4-.8.5-1.8.8-3 .8-1 0-2-.1-2.6-.5v-1.9z"/></g><g fill="#FFD176" stroke="#FFD176" stroke-width=".5" stroke-miterlimit="10"><path d="M15.6 38.4c.9.8 1.9 1.1 3 1.1.6 0 1.1-.1 1.5-.3.3-.3.4-.6.4-1 0-.3 0-.6-.4-.9-.2-.2-.9-.6-2-1-.8-.4-1.5-.9-1.9-1.4-.4-.5-.6-1-.6-1.8 0-1 .4-1.7 1.1-2.2.8-.6 1.8-.9 3-.9 1 0 2 .2 2.6.5v2c-.7-.5-1.6-.8-2.6-.8-.5 0-1 .1-1.4.4-.3.2-.5.5-.5.9 0 .3.1.6.4.8.2.3.8.6 1.7 1 1 .5 1.8 1 2.2 1.4.4.6.6 1.2.6 1.9 0 1-.3 1.8-1 2.3a5 5 0 0 1-3.1.8c-1.2 0-2.2-.2-3-.6v-2.2zM33.2 40.6c-.8.4-1.8.6-3 .6a5 5 0 0 1-3.8-1.5c-1-1-1.5-2.2-1.5-3.9 0-1.7.6-3 1.6-4.1 1-1.1 2.4-1.7 4.1-1.7 1 0 2 .2 2.6.5v2c-.7-.4-1.5-.6-2.5-.6s-2 .3-2.6 1a4 4 0 0 0-1 2.8c0 1.1.3 2 1 2.7s1.4 1 2.5 1c1 0 1.8-.3 2.6-.7v1.9zM35.7 38.4c.9.8 1.8 1.1 3 1.1.6 0 1.1-.1 1.4-.3.4-.3.5-.6.5-1 0-.3-.1-.6-.4-.9l-2-1c-.9-.4-1.5-.9-2-1.4-.3-.5-.5-1-.5-1.8 0-1 .3-1.7 1.1-2.2.8-.6 1.7-.9 3-.9 1 0 2 .2 2.5.5v2c-.7-.5-1.5-.8-2.5-.8-.6 0-1 .1-1.4.4s-.5.5-.5.9c0 .3 0 .6.3.8.3.3.9.6 1.8 1 1 .5 1.8 1 2.2 1.4.4.6.6 1.2.6 1.9 0 1-.4 1.8-1 2.3a5 5 0 0 1-3.1.8c-1.2 0-2.2-.2-3-.6v-2.2zM45.2 38.4c.8.8 1.8 1.1 3 1.1.6 0 1-.1 1.4-.3.3-.3.5-.6.5-1 0-.3-.1-.6-.4-.9l-2-1c-.9-.4-1.5-.9-2-1.4-.3-.5-.5-1-.5-1.8 0-1 .3-1.7 1-2.2.8-.6 1.8-.9 3-.9 1.1 0 2 .2 2.6.5v2c-.7-.5-1.5-.8-2.5-.8-.6 0-1 .1-1.4.4-.4.2-.5.5-.5.9 0 .3 0 .6.3.8.3.3.9.6 1.8 1 1 .5 1.8 1 2.2 1.4.4.6.6 1.2.6 1.9 0 1-.4 1.8-1 2.3a5 5 0 0 1-3.1.8c-1.3 0-2.3-.2-3-.6v-2.2z"/></g><path fill="#FFD176" d="M38.5 75.5c-3.5.3-5.6 2.5-6.9 5.7-1.4 3.6 2.9 12.6-2 13.7-1.9.5-1 3.4.8 3 9.7-2.4-1.4-18.5 8.1-19.4 2-.2 2-3.2 0-3z"/><path fill="#FFD176" d="M38.5 114.2c-9.5-.9 1.6-17-8.1-19.3-1.9-.4-2.7 2.5-.8 3 3.1.7 2.5 5 2 7.2-.6 2.2-.6 4.3 0 6.5a7.7 7.7 0 0 0 6.9 5.7c2 .1 2-2.9 0-3zM73.5 78.5c9.5 1-1.6 17 8.1 19.3 1.9.5 2.7-2.4.8-2.9-3.1-.7-2.5-5-2-7.2.6-2.3.6-4.3 0-6.5a7.7 7.7 0 0 0-6.9-5.7c-2-.2-2 2.8 0 3z"/><path fill="#FFD176" d="M73.5 117.2c3.5-.3 5.6-2.4 6.9-5.6 1.4-3.6-2.9-12.6 2-13.8 1.9-.4 1-3.3-.8-2.9-9.7 2.3 1.4 18.4-8.1 19.3-2 .2-2 3.2 0 3z"/><g fill="#FFD176"><circle cx="44.8" cy="104.3" r="2.8"/><circle cx="55.8" cy="104.3" r="2.8"/><circle cx="66.8" cy="104.3" r="2.8"/></g></svg>