<svg xmlns="http://www.w3.org/2000/svg" viewBox="0 0 110.6 138"><g fill="#FFF"><path d="M2.8 53h105V39L72.7 2H13.4c-5.2 0-10 4.4-10 9.7M83.5 39c-5.2 0-10.7-5.3-10.7-10.5v-25l33.4 35.4H83.5zM107.7 56H2.7v69.8c0 5.3 5.4 10.2 10.6 10.2h85.3c5.2 0 9.2-4.3 9.2-9.5l-.1-70.5z"/></g><g fill="#FFD176" stroke="#FFD176" stroke-width=".5" stroke-miterlimit="10"><path d="M27 32.6c-1 .6-2.4 1-3.9 1-1.6 0-3-.5-4-1.5s-1.4-2.3-1.4-4c0-1.6.5-3 1.6-4 1-1.2 2.5-1.7 4.3-1.7 1.1 0 2.1.2 3 .5v2c-.9-.5-1.9-.7-3.1-.7-1 0-2 .3-2.6 1-.7.7-1 1.7-1 2.8a4 4 0 0 0 .9 2.8c.6.6 1.4 1 2.5 1 .6 0 1.2-.1 1.6-.3V29h-2.2v-1.7H27v5.2zM29.8 23.1c0-.3.1-.5.3-.8.2-.2.5-.3.9-.3.3 0 .6.1.8.3.3.3.4.5.4.8 0 .3-.1.6-.4.8-.2.2-.5.3-.8.3-.4 0-.7 0-.9-.3a1 1 0 0 1-.3-.8zm.1 10.3v-7.7h2v7.7h-2zM39.4 33.3c-.3.2-.8.2-1.4.2-1.6 0-2.4-.8-2.4-2.5v-3.8h-1.3v-1.5h1.3v-1.8l2-.6v2.4h1.8v1.5h-1.8v3.5c0 .8.4 1.3 1 1.3.3 0 .6-.1.8-.3v1.6z"/></g><g fill="none" stroke="#FFD176" stroke-width="2.5" stroke-miterlimit="10"><path d="M35.3 69.9l-6.7 20.3-3 9.4s-1 2.4 1.5 4.1l28.8 20.5 27.6-20.4s2.8-1.3 1.2-5.1L76 71.6s-1.5-6.4-3.4 0l-6 18.5H44.2l-6.5-20.2s-.8-2.4-2.4 0zM44.2 90.1l11.7 34.1M55.9 124.2l10.6-34.1M81.9 90.1l-26 34.1M55.9 124.2l-27.3-34M66.5 90.1h15.4M28.7 90.1h15.5"/></g></svg>