<svg xmlns="http://www.w3.org/2000/svg" viewBox="0 0 110.6 138"><path fill="#FFF" d="M2.8 53h105V39L72.7 2H13.1a10 10 0 0 0-10 9.7M83.5 39c-5.3 0-10.6-5.3-10.6-10.5V3.4l33.6 35.5-23 .1zM107.7 56H2.7v69c0 5.3 5 11 10.2 11h85.7c5.2 0 9.2-4.3 9.2-9.5l-.1-70.5z"/><g fill="#FFD176" stroke="#FFD176" stroke-width=".5" stroke-miterlimit="10"><path d="M24.4 32.6c-1 .6-2.4 1-3.8 1-1.7 0-3-.5-4-1.5s-1.5-2.3-1.5-4c0-1.6.5-3 1.6-4 1-1.2 2.5-1.7 4.3-1.7 1.1 0 2.1.2 3 .5v2c-.9-.5-1.9-.7-3.1-.7-1 0-2 .3-2.6 1-.7.7-1 1.7-1 2.8a4 4 0 0 0 .9 2.8c.6.6 1.4 1 2.5 1 .6 0 1.2-.1 1.6-.3V29H20v-1.7h4.3v5.2zM34.4 33.4h-2v-1.2c-.6.9-1.4 1.4-2.4 1.4-1.8 0-2.7-1.1-2.7-3.3v-4.6h2V30c0 1.2.5 1.9 1.5 1.9.4 0 .8-.2 1.1-.6.3-.3.5-.7.5-1.3v-4.4h2v7.7zM37.5 33.4V22h2v11.4h-2zM44.7 32.4v4.5h-2V25.7h2v1.2c.6-1 1.4-1.4 2.5-1.4 1 0 1.8.3 2.3 1 .6.7.9 1.6.9 2.8 0 1.3-.4 2.3-1 3-.6.9-1.5 1.3-2.5 1.3s-1.7-.4-2.2-1.2zm0-2.4c0 .6.1 1 .4 1.4.3.4.8.6 1.3.6.6 0 1-.3 1.4-.7.3-.5.5-1.2.5-2 0-1.5-.6-2.2-1.8-2.2-.6 0-1 .2-1.3.6s-.6 1-.6 1.6v.7z"/></g><path fill="#FFF" d="M106.4 39h1.3l-35-37v1.4L106.4 39z"/><g><path fill="#FFD176" d="M67.3 81.6c-2.2-.6-4.4-.7-6.6-.8-1.2 0-.7-2.4-.6-3a8 8 0 0 1 2.5-4.1c1.4-1.4 2.7-3 4-4.5.2-.2 1-.6.1-1-.5-.3-.9-1.5-1.8-.5-1 1-1.8 2.1-2.9 3a13.6 13.6 0 0 0-5 9c0 .8-.4 1-1.2 1-4 0-7.8 0-11.7.7-.7.1-1.8.1-1.8.8 0 .7 1 .8 1.8 1a70.2 70.2 0 0 0 15.7 1c2.5-.2 5-.5 7.5-1.3.4-.1 1-.2 1-.7 0-.5-.6-.5-1-.6zm-9.9 1.5c-.2 0-1-.3-1-.5.3-.4 3 .5 4 0-.7.4-2.3.6-3 .5zM45 111.2zM65.1 111.2z"/><path fill="#FFD176" d="M42.2 83.2l1.3 13.7c.6-.4.6-1 .8-1.3a9.3 9.3 0 0 1 3.5-4.2c1.3-.8 2.6-.5 3.4.7.3.4.5 1 0 1.3-.6.5-.7-.2-1-.5-.5-.9-1.2-1-2-.4a10.1 10.1 0 0 0-3.5 7.2c-.1 1.1.6 1.4 1.5.8 1.4-1 2.5-2.2 2.9-4 .1-.4.2-1.1.9-1 .6.3.4 1 .2 1.4l-1.9 6.1c-.1.4-.3.9-.7.7-.5 0-.3-.6-.3-1 0-.7.6-1.3.5-2.2l-1.7 1.3c-.6.4-1.2.4-1.9.3l-.2.1.5 8.7s10.9 5 19.9.4c0 0 .5-.2.5-.4l1.3-10.6s-1.6 1.5-2.6 1.7c-.5.2-1 .2-1.3-.3-.3-.4 0-.9.2-1.2l1.6-2c.1-.2.4-.5.2-.7-.3-.3-.6-.1-.8 0-1 .6-1.6 1.4-2 2.4-.8 1.5-1.4 3-2 4.6-.1.5-.4 1.1-1 .9-.7-.3-.3-.9-.2-1.3L60 101l-.6.3c-.9.5-1.7 1.4-2.7.2-.2-.2-.5.2-.7.2-.4.2-.8.5-1.3.3-.5-.3-.3-.8-.4-1.3-.6.5-1 1-1.8 1.3-1.2.4-2-.3-1.7-1.5A16 16 0 0 1 52 97c.2-.4.5-.8 1-.5.5.3.2.7 0 1l-1 2.3c0 .3-.1.6.1.9.3.2.7 0 .9-.2l.8-.8a9 9 0 0 0 1.3-2.5c.2-.4.3-1 .9-.7.5.2.2.7 0 1l-.7 2.1c-.1.4-.4 1 0 1.2.5.2 1-.2 1.3-.6.2-.1.2-.4.3-.6l2.6-6.6.3-.8c.2-.2.5-.4.8-.3.3.2.4.5.3.8l-.4.8-2.6 6.4c0 .3-.2.6 0 .8.3.2.5 0 .7-.2 1.1-.8 2.3-1.5 2.6-3 0-.3.2-.7.7-.8.5 0 .3.6.6.8l.4-.4c.8-.5 1.6-1.2 2.4-.4.9.8 0 1.6-.4 2.3l-1.5 1.9c1.6-.3 3.2-1.9 3.3-3.2l.9-7 .8-7.5a52.6 52.6 0 0 1-26.2 0z"/><path fill="#FFD176" d="M44.5 111.5s2.5 1.7 10.5 2.2c0 0 5.8.2 9.7-2.2 0 0-1.5 1.7-2 3.7l-.4 8.8s-6.8 5.4-15.2 0l-.8-9s-.4-2-1.8-3.5z"/></g></svg>