<?xml version="1.0" encoding="utf-8"?>
<!-- Generator: Adobe Illustrator 16.0.0, SVG Export Plug-In . SVG Version: 6.00 Build 0)  -->
<!DOCTYPE svg PUBLIC "-//W3C//DTD SVG 1.1//EN" "http://www.w3.org/Graphics/SVG/1.1/DTD/svg11.dtd">
<svg version="1.1" xmlns="http://www.w3.org/2000/svg" xmlns:xlink="http://www.w3.org/1999/xlink" x="0px" y="0px"
	 width="35.201px" height="23.58px" viewBox="0 0 35.201 23.58" enable-background="new 0 0 35.201 23.58" xml:space="preserve">
<g id="Layer_1" display="none">
</g>
<g id="Layer_2">
	<path fill="#FFFFFF" d="M33.677,0H1.517C0.69,0,0,0.717,0,1.673v0.079v20.074c0,0.958,0.69,1.754,1.517,1.754h32.16
		c0.83,0,1.52-0.796,1.52-1.754V1.752C35.265,0.797,34.507,0,33.677,0z M29.123,3.426l-11.525,9.799L6.073,3.426H29.123z
		 M32.229,20.154H2.966V5.098L16.7,16.729c0.277,0.237,0.621,0.317,0.898,0.317c0.275,0,0.622-0.08,0.896-0.317l13.734-11.63V20.154
		z"/>
</g>
</svg>
