<svg xmlns="http://www.w3.org/2000/svg" viewBox="0 0 110.6 138"><path fill="#FFF" d="M2.7 53h105V39l-35-37H13.4C8 2 3.3 6.4 3.3 11.7M83.5 39c-5.2 0-10.8-5.3-10.8-10.5V3.4L106.3 39H83.5zM107.8 56H2.7v69.8c0 5.3 5.4 10.2 10.6 10.2h85.4c5.2 0 9.2-4.3 9.2-9.5l-.1-70.5z"/><g fill="#FFD176" stroke="#FFD176" stroke-width=".5" stroke-miterlimit="10"><path d="M16.2 20.6c0 1.4-.3 2.5-1 3.2-.6.7-1.5 1.1-2.6 1.1-.5 0-1 0-1.5-.2v-2c.4.3.9.4 1.3.4 1.2 0 1.7-.9 1.7-2.6v-6.6h2v6.7zM19.2 22.2c.8.7 1.8 1 2.9 1 .7 0 1.2 0 1.5-.3.3-.2.5-.6.5-1 0-.3-.2-.6-.4-.8-.3-.3-1-.7-2-1.1-1-.4-1.6-.9-2-1.4-.4-.5-.6-1-.6-1.7 0-1 .4-1.8 1.2-2.3.7-.6 1.7-.8 3-.8 1 0 1.9.1 2.5.4v2c-.7-.5-1.5-.7-2.5-.7-.6 0-1 0-1.4.3-.4.2-.6.5-.6.9 0 .3.2.6.4.8.3.3.8.6 1.8 1 1 .5 1.7 1 2.2 1.5.4.5.6 1 .6 1.8 0 1-.4 1.8-1.1 2.3a5 5 0 0 1-3 .8c-1.3 0-2.3-.2-3-.6v-2.1z"/></g><g fill="#FFD176" stroke="#FFD176" stroke-width=".5" stroke-miterlimit="10"><path d="M16.2 36.8c0 1.4-.3 2.5-1 3.3-.6.7-1.5 1-2.6 1-.5 0-1 0-1.5-.2v-2c.4.3.9.5 1.3.5 1.2 0 1.7-1 1.7-2.6v-6.6h2v6.6zM19 35.7c0-1.7.5-3 1.4-4.1a5 5 0 0 1 4-1.6c1.5 0 2.7.5 3.6 1.6 1 1 1.4 2.3 1.4 3.9 0 1.8-.5 3.3-1.6 4.3l2.7 2.6h-3.2L25.8 41a6 6 0 0 1-1.6.2c-1.6 0-2.8-.5-3.8-1.6S19 37.3 19 35.7zm2.2 0c0 1 .2 1.9.8 2.6.5.7 1.3 1 2.2 1 1 0 1.7-.3 2.2-1 .6-.6.8-1.5.8-2.7 0-1.1-.2-2-.7-2.7-.6-.7-1.3-1-2.2-1-1 0-1.7.3-2.3 1-.5.7-.8 1.6-.8 2.7zM39.1 41h-2v-1.2c-.6 1-1.4 1.4-2.4 1.4-1.8 0-2.7-1.1-2.7-3.3v-4.6h2v4.4c0 1.2.5 1.9 1.5 1.9.4 0 .8-.2 1.1-.5.3-.4.5-.8.5-1.4v-4.4h2V41zM49 37.7h-5.2c0 1.3.8 2 2.2 2a4 4 0 0 0 2.3-.7v1.5c-.7.5-1.6.7-2.8.7-1.1 0-2-.4-2.7-1a4 4 0 0 1-1-3c0-1.2.3-2.2 1-3 .7-.7 1.6-1.1 2.7-1.1 1 0 2 .3 2.5 1 .6.6 1 1.6 1 2.7v1zm-2-1.3c0-1.3-.5-1.9-1.5-1.9-.4 0-.8.2-1.1.5-.3.4-.5.8-.6 1.4H47zM56.2 35.2c-.3-.2-.6-.3-1-.3-.5 0-1 .2-1.2.6-.3.5-.5 1-.5 1.7V41h-2v-7.7h2v1.5c.4-1.1 1-1.7 2-1.7.3 0 .5 0 .7.2v1.9zM66 33.3l-3.2 8.5c-.8 1.9-1.8 2.8-3.2 2.8a4 4 0 0 1-1.3-.2v-1.6l1 .2c.6 0 1-.3 1.3-1l.5-1-3.1-7.7h2.2l1.6 5 .2 1 .3-1 1.7-5h2z"/></g><g fill="#FCD552"><path d="M32.4 113.2l-2 2 4.4 4.5 2-2.1a17 17 0 0 0 6.6 2.7v3h6.2v-3a17 17 0 0 0 6.6-2.7l2 2 4.4-4.3-2-2.1c1.3-2 2.2-4.2 2.7-6.5h3v-6.3h-3a17 17 0 0 0-2.7-6.5l2-2.1-4.4-4.4-2 2a17 17 0 0 0-6.6-2.6v-3h-6.2v3a17 17 0 0 0-6.6 2.7l-2-2.1-4.4 4.4 2 2a17 17 0 0 0-2.7 6.6h-3v6.3h3a17 17 0 0 0 2.7 6.5zm14.1-22.3a12.6 12.6 0 1 1 0 25.2 12.6 12.6 0 0 1 0-25.2zM81.9 77.2l1.8-.8-2-4.6-1.8.8c-.8-1.2-1.8-2.1-3-2.9l.8-1.9-4.6-1.8-.7 1.8c-1.4-.2-2.8-.2-4.1 0l-.8-1.8-4.6 2 .8 1.8c-1.2.8-2.1 1.8-2.9 3L59 72l-1.8 4.6 1.9.8c-.3 1.3-.3 2.7 0 4l-1.9.9 2 4.6L61 86c.8 1 1.7 2 2.9 2.8l-.8 1.9 4.7 1.9.7-2c1.4.3 2.7.3 4 0l.9 1.9 4.6-2-.8-1.8c1.1-.8 2-1.8 2.8-3l2 .8 1.8-4.6-1.9-.8c.2-1.3.2-2.7 0-4zm-8.4 9.3a7.8 7.8 0 1 1-6.1-14.3 7.8 7.8 0 0 1 6 14.3z"/></g></svg>