<svg xmlns="http://www.w3.org/2000/svg" width="100%" height="100%"  viewBox="0 0 43.816 65.913"><path fill="#FCD552" d="M42.868 21.547c0-11.68-9.553-21.129-21.271-20.958C10.28.753 1.066 10.008.949 21.325c-.071 6.817 3.114 12.894 8.096 16.771 1.826 1.423 2.925 3.582 2.925 5.897v5.368a4.865 4.865 0 0 0 4.865 4.864h10.147a4.864 4.864 0 0 0 4.864-4.864V44.06a7.542 7.542 0 0 1 2.916-5.955c4.932-3.834 8.106-9.825 8.106-16.558z"/><g fill="#474747"><path d="M28.572 58.002H16.026a1.544 1.544 0 0 1-1.544-1.546c0-.852.69-1.543 1.544-1.543h12.546a1.545 1.545 0 0 1 0 3.089zM27.645 61.62h-10.69a1.543 1.543 0 0 1-1.544-1.545c0-.854.69-1.544 1.544-1.544h10.69a1.545 1.545 0 0 1 0 3.089zM26.728 65.326h-8.856a1.543 1.543 0 0 1-1.544-1.544c0-.854.69-1.545 1.544-1.545h8.856a1.544 1.544 0 1 1 0 3.089z"/></g><path fill="#FFF" d="M8.132 24.033c-1.17-7.063 2.786-13.739 9.877-15.393 1.256-.292.724-2.221-.531-1.928C9.257 8.628 4.86 16.462 6.204 24.564c.21 1.271 2.138.73 1.928-.531z"/></svg>