<svg xmlns="http://www.w3.org/2000/svg" width="100%" height="100%" viewBox="0 0 85.9 65.9"><g fill="#343434"><path d="M40.7 46c-.6-.6-.8-1.3-.8-2.2v-11c0-.9.4-1.3 1.2-1.3h4c.8 0 1.2.4 1.2 1.2v10.8l8 8c.5.5.8 1.2.8 2v11.2c0 .8-.4 1.2-1.2 1.2h-4c-.8 0-1.2-.4-1.2-1.2V54l-8-8zM57 51.7c-.3.4-.6.4-.9 0l-3-3c-.4-.3-.4-.6 0-1l4.3-4.3V32.7c0-.8.4-1.2 1.2-1.2h4c.8 0 1.2.4 1.2 1.2v11.1c0 .9-.3 1.6-.8 2.1l-6 6zM63.9 44.7c0-.8.4-1.2 1.2-1.2h4c.8 0 1.2.4 1.2 1.2v20c0 .8-.4 1.2-1.2 1.2h-4c-.8 0-1.2-.4-1.2-1.2v-20zM79.5 50c0-.8-.4-1.2-1.2-1.2H73c-.8 0-1.2-.4-1.2-1.2v-2.8c0-.8.4-1.2 1.2-1.2h5.2c5 0 7.6 2.1 7.6 6.4v14.8c0 .8-.4 1.2-1.2 1.2h-4c-.8 0-1.2-.4-1.2-1.2V50z"/></g><path fill="#FCD552" d="M42.9 21.5A21 21 0 1 0 9 38.1c1.9 1.4 3 3.6 3 5.9v5.4c0 2.6 2.2 4.8 4.8 4.8H27c2.7 0 4.8-2.2 4.8-4.8V44c0-2.4 1.1-4.6 3-6a21 21 0 0 0 8-16.6z"/><g fill="#343434"><path d="M28.6 58H16c-.8 0-1.5-.7-1.5-1.5 0-.9.7-1.6 1.5-1.6h12.6c.8 0 1.5.7 1.5 1.6 0 .8-.7 1.5-1.5 1.5zM27.6 61.6H17c-.9 0-1.6-.7-1.6-1.5 0-.9.7-1.6 1.6-1.6h10.6c.9 0 1.6.7 1.6 1.6 0 .8-.7 1.5-1.6 1.5zM26.7 65.3H18c-.9 0-1.6-.7-1.6-1.5 0-.9.7-1.6 1.6-1.6h8.8c.9 0 1.6.7 1.6 1.6 0 .8-.7 1.5-1.6 1.5z"/></g><path fill="#FFF" d="M8.1 24C7 17 11 10.3 18.1 8.6c1.2-.3.6-2.2-.6-1.9-8.2 2-12.6 9.8-11.3 17.9.2 1.2 2.1.7 2-.6z"/></svg>