<svg xmlns="http://www.w3.org/2000/svg" viewBox="0 0 110.6 138"><g fill="#FFF"><path d="M106.7 39.1h1.3l-35-37v1.5L106.7 39z"/><path d="M82.6 39.1a10 10 0 0 1-9.6-9.9V2.1H12.4A9.6 9.6 0 0 0 3 11.8V53h105v-14H82.6z"/></g><path fill="#FFF" d="M3 56v70.5c0 5.2 4.2 9.5 9.4 9.5h86.2c5.2 0 9.4-4.3 9.4-9.5V56H3zm38 50.8c-.6.5-1.4.7-1.9.2L28.3 96.1 27 95l12-12c.4-.5 1.3-.4 1.9.2.6.6.7 1.5.2 2L31.3 95l10 10c.4.4.3 1.2-.3 1.8zm24.3-33.4L48 117.7c-.3.7-1.2 1.1-2 .8a1.5 1.5 0 0 1-.8-2l17.3-44.2c.3-.7 1.1-1.1 1.9-.8.8.3 1.2 1.2.9 2zM72 107c-.4.5-1.3.4-1.9-.2-.6-.6-.7-1.5-.2-2L80 95l-10-10c-.4-.4-.3-1.2.3-1.8.6-.5 1.4-.7 1.9-.2L83 93.9 84 95l-12 12z"/><g fill="#FCD552" stroke="#FCD552" stroke-width=".5" stroke-miterlimit="10"><path d="M21.5 32.8h-2v-4.5h-4.7v4.5h-2V22.3h2v4.3h4.7v-4.3h2v10.5zM32 24h-3v8.8h-2V24h-3v-1.7h8V24zM44 32.8v-6.5l.1-2.2-.4 1.3-2.7 7.4h-1.6l-2.8-7.4-.3-1.3v8.7h-1.8V22.3h2.9l2.4 6.5c.2.6.4 1 .4 1.4l.5-1.4 2.5-6.5H46v10.5h-2zM54.5 32.8h-6V22.3h2V31h4v1.7zM56.8 32.4v-1.8c.3.3.7.5 1 .6l1.2.2c.7 0 1.2-.2 1.6-.5.4-.3.6-.8.6-1.3 0-.6-.2-1-.6-1.3-.4-.3-1-.5-1.9-.5L57 28l.4-5.7h5.5v1.6H59l-.2 2.5 1-.1c1 0 1.9.3 2.5.8.6.6 1 1.3 1 2.2 0 1.2-.4 2-1.1 2.7-.8.6-1.7 1-3 1-1 0-1.8-.2-2.4-.6z"/></g><g fill="#FFD176"><path d="M65.3 73.4c.3-.7-.1-1.6-.9-1.9-.8-.3-1.6 0-2 .8l-17.2 44.3c-.3.7 0 1.6.8 1.9.8.3 1.7 0 2-.8l17.3-44.3zM41.3 105l-10-10 9.9-9.9c.5-.4.4-1.3-.2-1.9-.6-.6-1.5-.7-2-.2L27.2 95l1.1 1v.1l11 11c.4.4 1.2.2 1.8-.3.6-.6.7-1.4.3-1.9zM70 85l9.9 10L70 105c-.5.4-.4 1.3.2 1.9.6.6 1.5.7 2 .2l12-12-1.2-1v-.1l-11-11c-.4-.4-1.2-.2-1.8.3s-.7 1.4-.3 1.9z"/></g></svg>